<?xml version="1.0" encoding="UTF-8"?>
<svg id="_1" data-name="1" xmlns="http://www.w3.org/2000/svg" viewBox="0 0 372.77 479.29">
  <defs>
    <style>
      .cls-1 {
        fill: none;
        stroke: #1d1d1b;
        stroke-linecap: round;
        stroke-miterlimit: 10;
        stroke-width: 10px;
      }
    </style>
  </defs>
  <line class="cls-1" x1="255.59" y1="80.14" x2="184.95" y2="9.51"/>
  <line class="cls-1" x1="255.35" y1="115.27" x2="149.59" y2="9.51"/>
  <line class="cls-1" x1="290.89" y1="186.42" x2="114.11" y2="9.64"/>
  <line class="cls-1" x1="291.02" y1="222" x2="114.06" y2="45.04"/>
  <line class="cls-1" x1="362.01" y1="434.39" x2="78.94" y2="151.32"/>
  <line class="cls-1" x1="361.73" y1="398.6" x2="114.06" y2="150.93"/>
  <line class="cls-1" x1="326.37" y1="328.07" x2="114.24" y2="115.93"/>
  <line class="cls-1" x1="326.37" y1="292.71" x2="114.06" y2="80.4"/>
  <line class="cls-1" x1="361.95" y1="469.35" x2="184.95" y2="292.35"/>
  <line class="cls-1" x1="326.44" y1="469.42" x2="184.86" y2="327.84"/>
  <line class="cls-1" x1="291.2" y1="469.31" x2="185.58" y2="363.7"/>
  <line class="cls-1" x1="255.66" y1="469.49" x2="220.3" y2="434.14"/>
  <line class="cls-1" x1="147.16" y1="254.92" x2="78.79" y2="186.56"/>
  <line class="cls-1" x1="149.15" y1="292.44" x2="78.61" y2="221.91"/>
  <line class="cls-1" x1="149.3" y1="327.72" x2="78.78" y2="257.2"/>
  <line class="cls-1" x1="184.54" y1="398.28" x2="43.13" y2="256.88"/>
  <line class="cls-1" x1="184.77" y1="433.96" x2="43.4" y2="292.59"/>
  <line class="cls-1" x1="184.41" y1="468.96" x2="43.52" y2="328.07"/>
  <line class="cls-1" x1="149.41" y1="469.31" x2="43.52" y2="363.43"/>
  <line class="cls-1" x1="114.06" y1="469.31" x2="8.61" y2="363.87"/>
  <line class="cls-1" x1="78.88" y1="469.49" x2="7.99" y2="398.6"/>
  <line class="cls-1" x1="43.34" y1="469.31" x2="7.91" y2="433.88"/>
  <line class="cls-1" x1="43.52" y1="292.46" x2="255.71" y2="80.27"/>
  <line class="cls-1" x1="43.63" y1="327.97" x2="255.84" y2="115.75"/>
  <line class="cls-1" x1="7.99" y1="398.6" x2="255.53" y2="151.06"/>
  <line class="cls-1" x1="184.95" y1="257" x2="290.38" y2="151.57"/>
  <line class="cls-1" x1="184.95" y1="292.35" x2="291.06" y2="186.25"/>
  <line class="cls-1" x1="7.99" y1="469.31" x2="149.27" y2="328.03"/>
  <line class="cls-1" x1="185.18" y1="327.84" x2="291.02" y2="222"/>
  <line class="cls-1" x1="43.34" y1="469.31" x2="149.19" y2="363.47"/>
  <line class="cls-1" x1="7.94" y1="433.91" x2="149.2" y2="292.66"/>
  <line class="cls-1" x1="78.88" y1="469.49" x2="291.02" y2="257.36"/>
  <line class="cls-1" x1="114.24" y1="469.08" x2="325.86" y2="257.45"/>
  <line class="cls-1" x1="220.48" y1="398.6" x2="326.37" y2="292.71"/>
  <line class="cls-1" x1="220.48" y1="433.96" x2="326.28" y2="328.17"/>
  <line class="cls-1" x1="221.05" y1="468.75" x2="325.99" y2="363.81"/>
  <line class="cls-1" x1="256.05" y1="469.11" x2="361.91" y2="363.25"/>
  <line class="cls-1" x1="291.2" y1="469.31" x2="361.63" y2="398.88"/>
  <line class="cls-1" x1="326.82" y1="469.58" x2="361.91" y2="434.49"/>
  <line class="cls-1" x1="149.54" y1="469.18" x2="184.63" y2="434.09"/>
  <line class="cls-1" x1="78.61" y1="221.86" x2="255.57" y2="44.9"/>
  <line class="cls-1" x1="78.66" y1="186.43" x2="219.96" y2="45.13"/>
  <line class="cls-1" x1="114.24" y1="115.93" x2="218.74" y2="11.43"/>
  <line class="cls-1" x1="114.06" y1="80.4" x2="184.95" y2="9.51"/>
  <line class="cls-1" x1="114.06" y1="45.04" x2="149.4" y2="9.69"/>
</svg>