<?xml version="1.0" encoding="UTF-8"?>
<svg id="_1" data-name="1" xmlns="http://www.w3.org/2000/svg" viewBox="0 0 372.77 479.29">
  <defs>
    <style>
      .cls-1 {
        fill: none;
        stroke: #1d1d1b;
        stroke-linecap: round;
        stroke-miterlimit: 10;
        stroke-width: 10px;
      }
    </style>
  </defs>
  <line class="cls-1" x1="343.31" y1="118.37" x2="237.26" y2="12.32"/>
  <line class="cls-1" x1="343.31" y1="83.01" x2="272.6" y2="12.3"/>
  <line class="cls-1" x1="343.31" y1="47.66" x2="308" y2="12.34"/>
  <line class="cls-1" x1="343.31" y1="153.72" x2="201.95" y2="12.36"/>
  <line class="cls-1" x1="343.31" y1="189.08" x2="166.53" y2="12.3"/>
  <line class="cls-1" x1="166.45" y1="47.74" x2="131.09" y2="12.39"/>
  <line class="cls-1" x1="166.44" y1="189.03" x2="60.53" y2="83.12"/>
  <line class="cls-1" x1="343.31" y1="365.86" x2="308.03" y2="330.58"/>
  <line class="cls-1" x1="343.28" y1="401.25" x2="272.72" y2="330.69"/>
  <line class="cls-1" x1="166.72" y1="153.54" x2="61.24" y2="48.06"/>
  <line class="cls-1" x1="166.79" y1="118.29" x2="96.28" y2="47.78"/>
  <line class="cls-1" x1="166.41" y1="82.89" x2="96.16" y2="12.63"/>
  <line class="cls-1" x1="166.71" y1="224.44" x2="25.88" y2="83.61"/>
  <line class="cls-1" x1="166.6" y1="259.69" x2="25.09" y2="118.17"/>
  <line class="cls-1" x1="343.31" y1="436.57" x2="273.15" y2="366.41"/>
  <line class="cls-1" x1="343.31" y1="330.5" x2="307.96" y2="295.15"/>
  <line class="cls-1" x1="343.35" y1="471.89" x2="237.28" y2="365.83"/>
  <line class="cls-1" x1="307.96" y1="471.93" x2="239.16" y2="403.13"/>
  <line class="cls-1" x1="272.6" y1="471.93" x2="201.89" y2="401.22"/>
  <line class="cls-1" x1="166.62" y1="295.06" x2="25.47" y2="153.91"/>
  <line class="cls-1" x1="166.94" y1="330.38" x2="25.63" y2="189.07"/>
  <line class="cls-1" x1="166.82" y1="365.74" x2="25.31" y2="224.23"/>
  <line class="cls-1" x1="166.53" y1="401.22" x2="25.39" y2="260.08"/>
  <line class="cls-1" x1="201.98" y1="471.84" x2="25.43" y2="295.3"/>
  <line class="cls-1" x1="166.62" y1="471.84" x2="25.28" y2="330.5"/>
  <line class="cls-1" x1="131.26" y1="471.84" x2="25.21" y2="365.79"/>
  <line class="cls-1" x1="96.03" y1="471.72" x2="25.41" y2="401.09"/>
  <line class="cls-1" x1="60.71" y1="471.85" x2="25.25" y2="436.4"/>
  <line class="cls-1" x1="237.25" y1="471.93" x2="202.45" y2="437.13"/>
  <line class="cls-1" x1="273.24" y1="117.73" x2="343.06" y2="47.91"/>
  <line class="cls-1" x1="25.28" y1="365.86" x2="166.53" y2="224.61"/>
  <line class="cls-1" x1="25.28" y1="401.22" x2="166.71" y2="259.79"/>
  <line class="cls-1" x1="271.34" y1="154.98" x2="343.31" y2="83.01"/>
  <line class="cls-1" x1="308.84" y1="152.84" x2="343.05" y2="118.63"/>
  <line class="cls-1" x1="307.96" y1="189.08" x2="343.31" y2="153.72"/>
  <line class="cls-1" x1="25.18" y1="436.47" x2="166.61" y2="295.05"/>
  <line class="cls-1" x1="60.71" y1="471.85" x2="166.82" y2="365.74"/>
  <line class="cls-1" x1="96.03" y1="471.72" x2="166.53" y2="401.22"/>
  <line class="cls-1" x1="131.34" y1="471.76" x2="166.62" y2="436.49"/>
  <line class="cls-1" x1="25.33" y1="471.98" x2="166.95" y2="330.36"/>
  <line class="cls-1" x1="166.7" y1="471.92" x2="343.39" y2="295.22"/>
  <line class="cls-1" x1="237.38" y1="471.79" x2="343.31" y2="365.86"/>
  <line class="cls-1" x1="272.6" y1="471.93" x2="343.28" y2="401.25"/>
  <line class="cls-1" x1="307.96" y1="471.93" x2="343.31" y2="436.57"/>
  <line class="cls-1" x1="201.98" y1="471.84" x2="343.31" y2="330.5"/>
  <line class="cls-1" x1="237.85" y1="117.76" x2="343.31" y2="12.3"/>
  <line class="cls-1" x1="25.12" y1="330.35" x2="166.44" y2="189.03"/>
  <line class="cls-1" x1="238.87" y1="81.38" x2="307.96" y2="12.3"/>
  <line class="cls-1" x1="25.2" y1="295.06" x2="166.72" y2="153.54"/>
  <line class="cls-1" x1="202.16" y1="82.75" x2="272.6" y2="12.3"/>
  <line class="cls-1" x1="25.2" y1="259.88" x2="166.62" y2="118.45"/>
  <line class="cls-1" x1="202.88" y1="46.67" x2="237.25" y2="12.3"/>
  <line class="cls-1" x1="25.2" y1="224.35" x2="166.53" y2="83.01"/>
  <line class="cls-1" x1="25.43" y1="188.87" x2="201.95" y2="12.36"/>
  <line class="cls-1" x1="25.2" y1="153.64" x2="166.53" y2="12.3"/>
  <line class="cls-1" x1="25.09" y1="118.17" x2="130.98" y2="12.28"/>
</svg>