<?xml version="1.0" encoding="UTF-8"?>
<svg id="_1" data-name="1" xmlns="http://www.w3.org/2000/svg" viewBox="0 0 372.77 479.29">
  <defs>
    <style>
      .cls-1 {
        fill: none;
        stroke: #1d1d1b;
        stroke-linecap: round;
        stroke-miterlimit: 10;
        stroke-width: 10px;
      }
    </style>
  </defs>
  <line class="cls-1" x1="350.12" y1="117.67" x2="244.07" y2="11.62"/>
  <line class="cls-1" x1="350.12" y1="82.31" x2="279.41" y2="11.6"/>
  <line class="cls-1" x1="350.12" y1="46.96" x2="314.8" y2="11.64"/>
  <line class="cls-1" x1="350.12" y1="153.03" x2="208.75" y2="11.66"/>
  <line class="cls-1" x1="350.12" y1="188.38" x2="173.34" y2="11.6"/>
  <line class="cls-1" x1="173.25" y1="47.04" x2="137.89" y2="11.69"/>
  <line class="cls-1" x1="173.24" y1="188.33" x2="67.33" y2="82.42"/>
  <line class="cls-1" x1="350.12" y1="365.16" x2="314.84" y2="329.88"/>
  <line class="cls-1" x1="350.08" y1="400.56" x2="279.52" y2="330"/>
  <line class="cls-1" x1="173.52" y1="152.84" x2="68.04" y2="47.36"/>
  <line class="cls-1" x1="173.59" y1="117.59" x2="103.08" y2="47.09"/>
  <line class="cls-1" x1="173.21" y1="82.19" x2="102.96" y2="11.94"/>
  <line class="cls-1" x1="243.83" y1="294.06" x2="32.69" y2="82.91"/>
  <line class="cls-1" x1="173.41" y1="258.99" x2="31.89" y2="117.48"/>
  <line class="cls-1" x1="350.12" y1="435.87" x2="279.95" y2="365.71"/>
  <line class="cls-1" x1="350.12" y1="329.81" x2="314.76" y2="294.45"/>
  <line class="cls-1" x1="243.34" y1="223.64" x2="208.53" y2="188.83"/>
  <line class="cls-1" x1="243.44" y1="259.09" x2="208.7" y2="224.35"/>
  <line class="cls-1" x1="350.15" y1="471.2" x2="244.08" y2="365.13"/>
  <line class="cls-1" x1="314.76" y1="471.23" x2="245.96" y2="402.43"/>
  <line class="cls-1" x1="279.41" y1="471.23" x2="208.69" y2="400.52"/>
  <line class="cls-1" x1="173.42" y1="294.36" x2="32.28" y2="153.22"/>
  <line class="cls-1" x1="173.74" y1="329.68" x2="32.43" y2="188.37"/>
  <line class="cls-1" x1="173.63" y1="365.05" x2="32.12" y2="223.53"/>
  <line class="cls-1" x1="173.34" y1="400.52" x2="32.2" y2="259.38"/>
  <line class="cls-1" x1="208.78" y1="471.14" x2="32.24" y2="294.6"/>
  <line class="cls-1" x1="173.42" y1="471.14" x2="32.09" y2="329.81"/>
  <line class="cls-1" x1="138.07" y1="471.14" x2="32.02" y2="365.09"/>
  <line class="cls-1" x1="102.83" y1="471.02" x2="32.21" y2="400.4"/>
  <line class="cls-1" x1="67.52" y1="471.16" x2="32.06" y2="435.7"/>
  <line class="cls-1" x1="244.05" y1="471.23" x2="209.25" y2="436.43"/>
  <line class="cls-1" x1="280.04" y1="117.03" x2="349.86" y2="47.21"/>
  <line class="cls-1" x1="32.09" y1="365.16" x2="173.34" y2="223.91"/>
  <line class="cls-1" x1="32.09" y1="400.52" x2="243.83" y2="188.77"/>
  <line class="cls-1" x1="278.15" y1="154.28" x2="350.12" y2="82.31"/>
  <line class="cls-1" x1="315.65" y1="152.14" x2="349.86" y2="117.93"/>
  <line class="cls-1" x1="314.76" y1="188.38" x2="350.12" y2="153.03"/>
  <line class="cls-1" x1="208.57" y1="258.6" x2="243.44" y2="223.74"/>
  <line class="cls-1" x1="208.08" y1="294.81" x2="243.62" y2="259.27"/>
  <line class="cls-1" x1="31.98" y1="435.77" x2="173.41" y2="294.35"/>
  <line class="cls-1" x1="67.52" y1="471.16" x2="173.63" y2="365.05"/>
  <line class="cls-1" x1="102.83" y1="471.02" x2="173.34" y2="400.52"/>
  <line class="cls-1" x1="138.15" y1="471.06" x2="173.42" y2="435.79"/>
  <line class="cls-1" x1="32.14" y1="471.28" x2="173.76" y2="329.66"/>
  <line class="cls-1" x1="173.5" y1="471.22" x2="350.19" y2="294.53"/>
  <line class="cls-1" x1="244.19" y1="471.09" x2="350.12" y2="365.16"/>
  <line class="cls-1" x1="279.41" y1="471.23" x2="350.08" y2="400.56"/>
  <line class="cls-1" x1="314.76" y1="471.23" x2="350.12" y2="435.87"/>
  <line class="cls-1" x1="208.78" y1="471.14" x2="350.12" y2="329.81"/>
  <line class="cls-1" x1="244.65" y1="117.07" x2="350.12" y2="11.6"/>
  <line class="cls-1" x1="31.93" y1="329.65" x2="173.24" y2="188.33"/>
  <line class="cls-1" x1="245.68" y1="80.69" x2="314.76" y2="11.6"/>
  <line class="cls-1" x1="32" y1="294.36" x2="173.52" y2="152.84"/>
  <line class="cls-1" x1="208.96" y1="82.05" x2="279.41" y2="11.6"/>
  <line class="cls-1" x1="32" y1="259.18" x2="173.42" y2="117.76"/>
  <line class="cls-1" x1="209.68" y1="45.97" x2="244.05" y2="11.6"/>
  <line class="cls-1" x1="32" y1="223.65" x2="173.34" y2="82.31"/>
  <line class="cls-1" x1="32.23" y1="188.17" x2="208.75" y2="11.66"/>
  <line class="cls-1" x1="32" y1="152.94" x2="173.34" y2="11.6"/>
  <line class="cls-1" x1="31.89" y1="117.48" x2="137.79" y2="11.58"/>
</svg>