<?xml version="1.0" encoding="UTF-8"?>
<svg id="_1" data-name="1" xmlns="http://www.w3.org/2000/svg" viewBox="0 0 372.77 479.29">
  <defs>
    <style>
      .cls-1 {
        fill: none;
        stroke: #1d1d1b;
        stroke-linecap: round;
        stroke-miterlimit: 10;
        stroke-width: 10px;
      }
    </style>
  </defs>
  <line class="cls-1" x1="345.76" y1="118.14" x2="239.71" y2="12.09"/>
  <line class="cls-1" x1="345.76" y1="82.79" x2="275.05" y2="12.08"/>
  <line class="cls-1" x1="345.76" y1="47.43" x2="310.44" y2="12.12"/>
  <line class="cls-1" x1="345.76" y1="153.5" x2="204.39" y2="12.13"/>
  <line class="cls-1" x1="345.76" y1="188.86" x2="168.98" y2="12.08"/>
  <line class="cls-1" x1="168.89" y1="47.52" x2="133.54" y2="12.16"/>
  <line class="cls-1" x1="168.89" y1="188.81" x2="27.33" y2="47.25"/>
  <line class="cls-1" x1="169.16" y1="153.32" x2="27.54" y2="11.69"/>
  <line class="cls-1" x1="169.23" y1="118.06" x2="62.88" y2="11.71"/>
  <line class="cls-1" x1="168.86" y1="82.67" x2="98.6" y2="12.41"/>
  <line class="cls-1" x1="239.47" y1="294.53" x2="28.33" y2="83.39"/>
  <line class="cls-1" x1="169.05" y1="259.47" x2="27.53" y2="117.95"/>
  <line class="cls-1" x1="238.98" y1="224.12" x2="204.17" y2="189.3"/>
  <line class="cls-1" x1="239.08" y1="259.57" x2="204.34" y2="224.83"/>
  <line class="cls-1" x1="169.07" y1="294.84" x2="27.92" y2="153.69"/>
  <line class="cls-1" x1="169.38" y1="330.15" x2="28.07" y2="188.84"/>
  <line class="cls-1" x1="169.27" y1="365.52" x2="27.76" y2="224.01"/>
  <line class="cls-1" x1="168.98" y1="400.99" x2="27.84" y2="259.85"/>
  <line class="cls-1" x1="169.07" y1="436.26" x2="27.88" y2="295.07"/>
  <line class="cls-1" x1="169.07" y1="471.62" x2="27.73" y2="330.28"/>
  <line class="cls-1" x1="133.71" y1="471.62" x2="27.66" y2="365.57"/>
  <line class="cls-1" x1="98.48" y1="471.5" x2="27.85" y2="400.87"/>
  <line class="cls-1" x1="63.16" y1="471.63" x2="27.7" y2="436.17"/>
  <line class="cls-1" x1="275.68" y1="117.51" x2="345.51" y2="47.69"/>
  <line class="cls-1" x1="27.73" y1="365.64" x2="168.98" y2="224.39"/>
  <line class="cls-1" x1="27.73" y1="400.99" x2="239.47" y2="189.25"/>
  <line class="cls-1" x1="273.79" y1="154.76" x2="345.76" y2="82.79"/>
  <line class="cls-1" x1="311.29" y1="152.62" x2="345.5" y2="118.41"/>
  <line class="cls-1" x1="310.4" y1="188.86" x2="345.76" y2="153.5"/>
  <line class="cls-1" x1="204.21" y1="259.08" x2="239.08" y2="224.21"/>
  <line class="cls-1" x1="203.72" y1="295.28" x2="239.26" y2="259.75"/>
  <line class="cls-1" x1="27.63" y1="436.25" x2="169.05" y2="294.82"/>
  <line class="cls-1" x1="63.16" y1="471.63" x2="169.27" y2="365.52"/>
  <line class="cls-1" x1="98.48" y1="471.5" x2="168.98" y2="400.99"/>
  <line class="cls-1" x1="133.79" y1="471.54" x2="169.07" y2="436.26"/>
  <line class="cls-1" x1="27.78" y1="471.76" x2="169.4" y2="330.14"/>
  <line class="cls-1" x1="240.29" y1="117.54" x2="345.76" y2="12.08"/>
  <line class="cls-1" x1="27.57" y1="330.12" x2="168.89" y2="188.81"/>
  <line class="cls-1" x1="241.32" y1="81.16" x2="310.4" y2="12.08"/>
  <line class="cls-1" x1="27.64" y1="294.84" x2="169.16" y2="153.32"/>
  <line class="cls-1" x1="204.6" y1="82.52" x2="275.05" y2="12.08"/>
  <line class="cls-1" x1="27.92" y1="82.52" x2="98.37" y2="12.08"/>
  <line class="cls-1" x1="27.64" y1="259.66" x2="169.07" y2="118.23"/>
  <line class="cls-1" x1="205.32" y1="46.44" x2="239.69" y2="12.08"/>
  <line class="cls-1" x1="27.01" y1="46.44" x2="61.37" y2="12.08"/>
  <line class="cls-1" x1="27.64" y1="224.13" x2="168.98" y2="82.79"/>
  <line class="cls-1" x1="27.88" y1="188.65" x2="204.39" y2="12.13"/>
  <line class="cls-1" x1="27.64" y1="153.41" x2="168.98" y2="12.08"/>
  <line class="cls-1" x1="27.53" y1="117.95" x2="133.43" y2="12.06"/>
</svg>