<?xml version="1.0" encoding="UTF-8"?>
<svg id="_1" data-name="1" xmlns="http://www.w3.org/2000/svg" viewBox="0 0 372.77 479.29">
  <defs>
    <style>
      .cls-1 {
        fill: none;
        stroke: #1d1d1b;
        stroke-linecap: round;
        stroke-miterlimit: 10;
        stroke-width: 10px;
      }
    </style>
  </defs>
  <line class="cls-1" x1="127.93" y1="47.02" x2="163.21" y2="11.74"/>
  <line class="cls-1" x1="127.93" y1="188.45" x2="269.09" y2="47.29"/>
  <line class="cls-1" x1="127.85" y1="153.16" x2="269.27" y2="11.73"/>
  <line class="cls-1" x1="127.86" y1="117.87" x2="233.92" y2="11.8"/>
  <line class="cls-1" x1="127.89" y1="82.41" x2="198.56" y2="11.73"/>
  <line class="cls-1" x1="127.9" y1="223.88" x2="269.3" y2="82.48"/>
  <line class="cls-1" x1="128.08" y1="258.82" x2="269.19" y2="117.71"/>
  <line class="cls-1" x1="127.91" y1="294.56" x2="269.29" y2="153.17"/>
  <line class="cls-1" x1="127.83" y1="329.91" x2="269.14" y2="188.6"/>
  <line class="cls-1" x1="127.65" y1="365.14" x2="269.1" y2="223.7"/>
  <line class="cls-1" x1="127.68" y1="400.48" x2="269.1" y2="259.05"/>
  <line class="cls-1" x1="127.68" y1="435.83" x2="269.1" y2="294.41"/>
  <line class="cls-1" x1="127.85" y1="471.36" x2="269.35" y2="329.87"/>
  <line class="cls-1" x1="163.22" y1="471.37" x2="269.31" y2="365.28"/>
  <line class="cls-1" x1="198.46" y1="471.41" x2="269.25" y2="400.62"/>
  <line class="cls-1" x1="233.97" y1="471.38" x2="269.35" y2="436"/>
  <line class="cls-1" x1="269.3" y1="365.28" x2="127.9" y2="223.88"/>
  <line class="cls-1" x1="269.3" y1="400.63" x2="127.78" y2="259.12"/>
  <line class="cls-1" x1="269.32" y1="435.97" x2="127.91" y2="294.56"/>
  <line class="cls-1" x1="233.93" y1="471.42" x2="127.84" y2="365.32"/>
  <line class="cls-1" x1="198.4" y1="471.34" x2="127.6" y2="400.55"/>
  <line class="cls-1" x1="163.21" y1="471.37" x2="128.05" y2="436.21"/>
  <line class="cls-1" x1="269.32" y1="471.46" x2="127.8" y2="329.94"/>
  <line class="cls-1" x1="269.27" y1="329.79" x2="128" y2="188.52"/>
  <line class="cls-1" x1="269.07" y1="294.36" x2="127.86" y2="153.15"/>
  <line class="cls-1" x1="269.1" y1="259.05" x2="127.89" y2="117.84"/>
  <line class="cls-1" x1="269.14" y1="223.66" x2="127.9" y2="82.41"/>
  <line class="cls-1" x1="269.23" y1="188.51" x2="127.84" y2="47.12"/>
  <line class="cls-1" x1="269.33" y1="153.13" x2="127.85" y2="11.66"/>
  <line class="cls-1" x1="269.13" y1="117.65" x2="163.24" y2="11.77"/>
  <line class="cls-1" x1="269.27" y1="82.44" x2="198.56" y2="11.73"/>
  <line class="cls-1" x1="269.28" y1="47.1" x2="233.95" y2="11.77"/>
</svg>