<?xml version="1.0" encoding="UTF-8"?>
<svg id="_1" data-name="1" xmlns="http://www.w3.org/2000/svg" viewBox="0 0 372.77 479.29">
  <defs>
    <style>
      .cls-1 {
        fill: none;
        stroke: #1d1d1b;
        stroke-linecap: round;
        stroke-miterlimit: 10;
        stroke-width: 10px;
      }
    </style>
  </defs>
  <line class="cls-1" x1="201.69" y1="49.83" x2="237.05" y2="14.48"/>
  <line class="cls-1" x1="201.7" y1="191.12" x2="342.55" y2="50.27"/>
  <line class="cls-1" x1="24.83" y1="367.95" x2="130.46" y2="262.32"/>
  <line class="cls-1" x1="24.86" y1="403.35" x2="165.85" y2="262.36"/>
  <line class="cls-1" x1="201.42" y1="155.63" x2="342.35" y2="14.71"/>
  <line class="cls-1" x1="201.36" y1="120.38" x2="307.01" y2="14.73"/>
  <line class="cls-1" x1="201.73" y1="84.98" x2="271.99" y2="14.73"/>
  <line class="cls-1" x1="201.43" y1="226.53" x2="342.26" y2="85.7"/>
  <line class="cls-1" x1="201.54" y1="261.78" x2="343.05" y2="120.27"/>
  <line class="cls-1" x1="60.18" y1="403.31" x2="166.45" y2="297.04"/>
  <line class="cls-1" x1="24.83" y1="332.6" x2="95.1" y2="262.32"/>
  <line class="cls-1" x1="24.59" y1="297.15" x2="59.19" y2="262.55"/>
  <line class="cls-1" x1="59.71" y1="439.07" x2="165.6" y2="333.18"/>
  <line class="cls-1" x1="95.54" y1="438.66" x2="165.18" y2="369.02"/>
  <line class="cls-1" x1="95.54" y1="474.02" x2="166.25" y2="403.31"/>
  <line class="cls-1" x1="201.52" y1="297.15" x2="342.67" y2="156.01"/>
  <line class="cls-1" x1="201.21" y1="332.47" x2="342.51" y2="191.16"/>
  <line class="cls-1" x1="201.32" y1="367.83" x2="342.83" y2="226.32"/>
  <line class="cls-1" x1="201.61" y1="403.31" x2="342.75" y2="262.17"/>
  <line class="cls-1" x1="166.17" y1="473.93" x2="342.71" y2="297.39"/>
  <line class="cls-1" x1="201.52" y1="473.93" x2="342.86" y2="332.6"/>
  <line class="cls-1" x1="236.88" y1="473.93" x2="342.93" y2="367.88"/>
  <line class="cls-1" x1="272.11" y1="473.81" x2="342.74" y2="403.19"/>
  <line class="cls-1" x1="307.43" y1="473.95" x2="342.89" y2="438.49"/>
  <line class="cls-1" x1="130.9" y1="474.02" x2="165.7" y2="439.22"/>
  <line class="cls-1" x1="342.86" y1="367.95" x2="201.61" y2="226.7"/>
  <line class="cls-1" x1="342.86" y1="403.31" x2="201.43" y2="261.88"/>
  <line class="cls-1" x1="342.96" y1="438.56" x2="201.54" y2="297.14"/>
  <line class="cls-1" x1="307.43" y1="473.95" x2="201.32" y2="367.83"/>
  <line class="cls-1" x1="272.11" y1="473.81" x2="201.61" y2="403.31"/>
  <line class="cls-1" x1="236.8" y1="473.85" x2="201.52" y2="438.58"/>
  <line class="cls-1" x1="342.81" y1="474.07" x2="201.19" y2="332.45"/>
  <line class="cls-1" x1="201.45" y1="474.01" x2="24.75" y2="297.32"/>
  <line class="cls-1" x1="130.76" y1="473.88" x2="24.83" y2="367.95"/>
  <line class="cls-1" x1="165.64" y1="368.57" x2="60.25" y2="263.18"/>
  <line class="cls-1" x1="165.22" y1="332.79" x2="95.64" y2="263.21"/>
  <line class="cls-1" x1="166.17" y1="297.15" x2="130.81" y2="261.8"/>
  <line class="cls-1" x1="166.17" y1="473.93" x2="24.83" y2="332.6"/>
  <line class="cls-1" x1="164.48" y1="402.77" x2="22.88" y2="261.16"/>
  <line class="cls-1" x1="343.02" y1="332.44" x2="201.7" y2="191.12"/>
  <line class="cls-1" x1="342.95" y1="297.15" x2="201.42" y2="155.63"/>
  <line class="cls-1" x1="342.95" y1="261.97" x2="201.52" y2="120.55"/>
  <line class="cls-1" x1="342.95" y1="226.44" x2="201.61" y2="85.1"/>
  <line class="cls-1" x1="342.71" y1="190.96" x2="201.64" y2="49.89"/>
  <line class="cls-1" x1="342.95" y1="155.73" x2="201.61" y2="14.39"/>
  <line class="cls-1" x1="343.05" y1="120.27" x2="237.16" y2="14.37"/>
  <line class="cls-1" x1="342.45" y1="85.52" x2="271.82" y2="14.89"/>
  <line class="cls-1" x1="342.55" y1="50.27" x2="307.01" y2="14.73"/>
</svg>