<?xml version="1.0" encoding="UTF-8"?>
<svg id="_1" data-name="1" xmlns="http://www.w3.org/2000/svg" viewBox="0 0 372.77 479.29">
  <defs>
    <style>
      .cls-1 {
        fill: none;
        stroke: #1d1d1b;
        stroke-linecap: round;
        stroke-miterlimit: 10;
        stroke-width: 10px;
      }
    </style>
  </defs>
  <line class="cls-1" x1="298.79" y1="12.61" x2="192.74" y2="118.66"/>
  <line class="cls-1" x1="263.43" y1="12.61" x2="192.72" y2="83.32"/>
  <line class="cls-1" x1="228.07" y1="12.61" x2="192.76" y2="47.92"/>
  <line class="cls-1" x1="334.14" y1="12.61" x2="192.77" y2="153.98"/>
  <line class="cls-1" x1="154.59" y1="48.04" x2="119.23" y2="12.68"/>
  <line class="cls-1" x1="189.4" y1="224.14" x2="13.25" y2="47.99"/>
  <line class="cls-1" x1="294.86" y1="472.1" x2="330.14" y2="436.82"/>
  <line class="cls-1" x1="259.46" y1="472.07" x2="330.02" y2="401.51"/>
  <line class="cls-1" x1="154.86" y1="153.84" x2="12.82" y2="11.8"/>
  <line class="cls-1" x1="154.93" y1="118.58" x2="48.8" y2="12.45"/>
  <line class="cls-1" x1="154.55" y1="83.18" x2="84.3" y2="12.93"/>
  <line class="cls-1" x1="154.85" y1="224.73" x2="14.03" y2="83.91"/>
  <line class="cls-1" x1="364.35" y1="469.58" x2="13.23" y2="118.47"/>
  <line class="cls-1" x1="224.15" y1="472.1" x2="294.31" y2="401.94"/>
  <line class="cls-1" x1="330.21" y1="472.1" x2="365.57" y2="436.75"/>
  <line class="cls-1" x1="188.82" y1="472.14" x2="294.89" y2="366.07"/>
  <line class="cls-1" x1="188.79" y1="436.75" x2="257.59" y2="367.95"/>
  <line class="cls-1" x1="188.79" y1="401.39" x2="259.5" y2="330.68"/>
  <line class="cls-1" x1="154.76" y1="295.36" x2="13.62" y2="154.21"/>
  <line class="cls-1" x1="155.08" y1="330.67" x2="13.77" y2="189.36"/>
  <line class="cls-1" x1="154.97" y1="366.04" x2="13.46" y2="224.53"/>
  <line class="cls-1" x1="154.68" y1="401.51" x2="13.54" y2="260.37"/>
  <line class="cls-1" x1="154.76" y1="436.78" x2="13.58" y2="295.59"/>
  <line class="cls-1" x1="154.76" y1="472.14" x2="13.43" y2="330.8"/>
  <line class="cls-1" x1="119.41" y1="472.14" x2="13.36" y2="366.09"/>
  <line class="cls-1" x1="84.17" y1="472.01" x2="13.55" y2="401.39"/>
  <line class="cls-1" x1="48.86" y1="472.15" x2="13.4" y2="436.69"/>
  <line class="cls-1" x1="188.79" y1="366.04" x2="223.59" y2="331.24"/>
  <line class="cls-1" x1="188.79" y1="330.12" x2="223.59" y2="295.32"/>
  <line class="cls-1" x1="298.15" y1="82.68" x2="228.33" y2="12.86"/>
  <line class="cls-1" x1="13.43" y1="366.16" x2="367.38" y2="12.2"/>
  <line class="cls-1" x1="13.43" y1="401.51" x2="154.85" y2="260.09"/>
  <line class="cls-1" x1="333.33" y1="82.51" x2="263.43" y2="12.61"/>
  <line class="cls-1" x1="333.26" y1="47.08" x2="299.05" y2="12.87"/>
  <line class="cls-1" x1="367.71" y1="46.18" x2="334.14" y2="12.61"/>
  <line class="cls-1" x1="13.32" y1="436.77" x2="189.33" y2="260.77"/>
  <line class="cls-1" x1="48.86" y1="472.15" x2="154.97" y2="366.04"/>
  <line class="cls-1" x1="84.17" y1="472.01" x2="154.68" y2="401.51"/>
  <line class="cls-1" x1="119.49" y1="472.06" x2="154.76" y2="436.78"/>
  <line class="cls-1" x1="13.48" y1="472.27" x2="155.1" y2="330.66"/>
  <line class="cls-1" x1="188.93" y1="366.17" x2="294.86" y2="472.1"/>
  <line class="cls-1" x1="188.79" y1="401.39" x2="259.46" y2="472.07"/>
  <line class="cls-1" x1="188.79" y1="436.75" x2="224.15" y2="472.1"/>
  <line class="cls-1" x1="188.88" y1="330.77" x2="330.21" y2="472.1"/>
  <line class="cls-1" x1="298.18" y1="118.07" x2="192.72" y2="12.61"/>
  <line class="cls-1" x1="13.27" y1="330.64" x2="154.58" y2="189.33"/>
  <line class="cls-1" x1="261.8" y1="117.05" x2="192.72" y2="47.96"/>
  <line class="cls-1" x1="13.34" y1="295.36" x2="154.86" y2="153.84"/>
  <line class="cls-1" x1="261.46" y1="152.06" x2="192.72" y2="83.32"/>
  <line class="cls-1" x1="13.34" y1="260.17" x2="154.76" y2="118.75"/>
  <line class="cls-1" x1="227.09" y1="153.04" x2="192.72" y2="118.68"/>
  <line class="cls-1" x1="224.15" y1="187.8" x2="192.04" y2="155.7"/>
  <line class="cls-1" x1="13.34" y1="224.65" x2="154.68" y2="83.31"/>
  <line class="cls-1" x1="13.57" y1="189.17" x2="153.87" y2="48.87"/>
  <line class="cls-1" x1="13.34" y1="153.93" x2="154.68" y2="12.6"/>
  <line class="cls-1" x1="13.23" y1="118.47" x2="119.13" y2="12.58"/>
  <line class="cls-1" x1="13.36" y1="83.24" x2="83.99" y2="12.62"/>
  <line class="cls-1" x1="13.25" y1="47.99" x2="48.8" y2="12.45"/>
</svg>