<?xml version="1.0" encoding="UTF-8"?>
<svg id="_1" data-name="1" xmlns="http://www.w3.org/2000/svg" viewBox="0 0 372.77 479.29">
  <defs>
    <style>
      .cls-1 {
        fill: none;
        stroke: #1d1d1b;
        stroke-linecap: round;
        stroke-miterlimit: 10;
        stroke-width: 10px;
      }
    </style>
  </defs>
  <line class="cls-1" x1="163.6" y1="48.48" x2="128.24" y2="13.12"/>
  <line class="cls-1" x1="163.59" y1="189.77" x2="21.66" y2="47.84"/>
  <line class="cls-1" x1="340.46" y1="366.6" x2="305.18" y2="331.32"/>
  <line class="cls-1" x1="340.43" y1="401.99" x2="269.87" y2="331.43"/>
  <line class="cls-1" x1="163.87" y1="154.28" x2="21.23" y2="11.64"/>
  <line class="cls-1" x1="163.94" y1="119.03" x2="58.01" y2="13.1"/>
  <line class="cls-1" x1="163.56" y1="83.63" x2="93.3" y2="13.37"/>
  <line class="cls-1" x1="163.86" y1="225.17" x2="23.03" y2="84.35"/>
  <line class="cls-1" x1="163.75" y1="260.43" x2="22.24" y2="118.91"/>
  <line class="cls-1" x1="340.46" y1="437.31" x2="270.3" y2="367.14"/>
  <line class="cls-1" x1="340.46" y1="331.24" x2="305.11" y2="295.89"/>
  <line class="cls-1" x1="340.5" y1="472.63" x2="234.43" y2="366.56"/>
  <line class="cls-1" x1="305.11" y1="472.67" x2="236.31" y2="403.87"/>
  <line class="cls-1" x1="269.75" y1="472.67" x2="199.04" y2="401.95"/>
  <line class="cls-1" x1="163.77" y1="295.8" x2="22.62" y2="154.65"/>
  <line class="cls-1" x1="164.09" y1="331.11" x2="22.78" y2="189.81"/>
  <line class="cls-1" x1="163.97" y1="366.48" x2="22.46" y2="224.97"/>
  <line class="cls-1" x1="163.68" y1="401.95" x2="22.54" y2="260.81"/>
  <line class="cls-1" x1="199.13" y1="472.58" x2="22.58" y2="296.04"/>
  <line class="cls-1" x1="163.77" y1="472.58" x2="22.43" y2="331.24"/>
  <line class="cls-1" x1="128.41" y1="472.58" x2="22.36" y2="366.53"/>
  <line class="cls-1" x1="93.18" y1="472.46" x2="22.55" y2="401.83"/>
  <line class="cls-1" x1="57.86" y1="472.59" x2="22.4" y2="437.14"/>
  <line class="cls-1" x1="234.39" y1="472.67" x2="199.59" y2="437.87"/>
  <line class="cls-1" x1="22.43" y1="366.6" x2="163.68" y2="225.35"/>
  <line class="cls-1" x1="22.43" y1="401.95" x2="163.86" y2="260.53"/>
  <line class="cls-1" x1="22.33" y1="437.21" x2="163.75" y2="295.78"/>
  <line class="cls-1" x1="57.86" y1="472.59" x2="163.97" y2="366.48"/>
  <line class="cls-1" x1="93.18" y1="472.46" x2="163.68" y2="401.95"/>
  <line class="cls-1" x1="128.49" y1="472.5" x2="163.77" y2="437.22"/>
  <line class="cls-1" x1="22.48" y1="472.72" x2="164.1" y2="331.1"/>
  <line class="cls-1" x1="163.85" y1="472.66" x2="340.54" y2="295.96"/>
  <line class="cls-1" x1="234.53" y1="472.53" x2="340.46" y2="366.6"/>
  <line class="cls-1" x1="269.75" y1="472.67" x2="340.43" y2="401.99"/>
  <line class="cls-1" x1="305.11" y1="472.67" x2="340.46" y2="437.31"/>
  <line class="cls-1" x1="199.13" y1="472.58" x2="340.46" y2="331.24"/>
  <line class="cls-1" x1="22.27" y1="331.08" x2="163.59" y2="189.77"/>
  <line class="cls-1" x1="22.35" y1="295.8" x2="163.87" y2="154.28"/>
  <line class="cls-1" x1="22.35" y1="260.62" x2="163.77" y2="119.19"/>
  <line class="cls-1" x1="22.35" y1="225.09" x2="163.68" y2="83.75"/>
  <line class="cls-1" x1="22.58" y1="189.61" x2="163.49" y2="48.7"/>
  <line class="cls-1" x1="22.35" y1="154.38" x2="163.68" y2="13.04"/>
  <line class="cls-1" x1="22.24" y1="118.91" x2="128.13" y2="13.02"/>
  <line class="cls-1" x1="22.54" y1="83.57" x2="93.16" y2="12.95"/>
  <line class="cls-1" x1="21.55" y1="47.19" x2="56.68" y2="12.06"/>
</svg>