<?xml version="1.0" encoding="UTF-8"?>
<svg id="_1" data-name="1" xmlns="http://www.w3.org/2000/svg" viewBox="0 0 411.57 479.29">
  <defs>
    <style>
      .cls-1 {
        fill: none;
        stroke: #1d1d1b;
        stroke-linecap: round;
        stroke-miterlimit: 10;
        stroke-width: 10px;
      }
    </style>
  </defs>
  <line class="cls-1" x1="11.78" y1="45.27" x2="47.06" y2="9.99"/>
  <line class="cls-1" x1="11.78" y1="186.7" x2="117.83" y2="80.65"/>
  <line class="cls-1" x1="11.7" y1="151.41" x2="118.38" y2="44.72"/>
  <line class="cls-1" x1="11.7" y1="116.12" x2="82.44" y2="45.38"/>
  <line class="cls-1" x1="11.73" y1="80.66" x2="82.41" y2="9.98"/>
  <line class="cls-1" x1="11.75" y1="222.13" x2="153.15" y2="80.73"/>
  <line class="cls-1" x1="11.93" y1="257.07" x2="153.03" y2="115.97"/>
  <line class="cls-1" x1="11.75" y1="292.81" x2="188.49" y2="116.08"/>
  <line class="cls-1" x1="11.67" y1="328.17" x2="188.45" y2="151.38"/>
  <line class="cls-1" x1="11.5" y1="363.39" x2="205.97" y2="168.92"/>
  <line class="cls-1" x1="11.52" y1="398.73" x2="152.95" y2="257.3"/>
  <line class="cls-1" x1="11.52" y1="434.08" x2="152.95" y2="292.66"/>
  <line class="cls-1" x1="11.7" y1="469.62" x2="153.19" y2="328.12"/>
  <line class="cls-1" x1="47.06" y1="469.62" x2="153.15" y2="363.53"/>
  <line class="cls-1" x1="82.31" y1="469.66" x2="153.09" y2="398.87"/>
  <line class="cls-1" x1="117.82" y1="469.63" x2="153.19" y2="434.25"/>
  <line class="cls-1" x1="153.15" y1="363.53" x2="11.75" y2="222.13"/>
  <line class="cls-1" x1="153.15" y1="398.89" x2="11.63" y2="257.37"/>
  <line class="cls-1" x1="153.17" y1="434.22" x2="11.75" y2="292.81"/>
  <line class="cls-1" x1="117.78" y1="469.67" x2="11.68" y2="363.57"/>
  <line class="cls-1" x1="82.24" y1="469.6" x2="11.45" y2="398.8"/>
  <line class="cls-1" x1="47.06" y1="469.62" x2="11.9" y2="434.46"/>
  <line class="cls-1" x1="153.17" y1="469.71" x2="11.65" y2="328.19"/>
  <line class="cls-1" x1="153.11" y1="328.04" x2="11.84" y2="186.77"/>
  <line class="cls-1" x1="152.91" y1="292.61" x2="11.7" y2="151.4"/>
  <line class="cls-1" x1="152.95" y1="257.3" x2="11.73" y2="116.09"/>
  <line class="cls-1" x1="152.99" y1="221.91" x2="11.74" y2="80.67"/>
  <line class="cls-1" x1="223.43" y1="257.11" x2="11.68" y2="45.37"/>
  <line class="cls-1" x1="222.81" y1="221.02" x2="11.7" y2="9.91"/>
  <line class="cls-1" x1="205.14" y1="168.07" x2="47.09" y2="10.02"/>
  <line class="cls-1" x1="398.36" y1="45.27" x2="363.08" y2="9.99"/>
  <line class="cls-1" x1="398.37" y1="186.7" x2="292.31" y2="80.65"/>
  <line class="cls-1" x1="398.45" y1="151.41" x2="291.76" y2="44.72"/>
  <line class="cls-1" x1="398.44" y1="116.12" x2="327.7" y2="45.38"/>
  <line class="cls-1" x1="398.41" y1="80.66" x2="327.74" y2="9.98"/>
  <line class="cls-1" x1="398.39" y1="222.13" x2="256.99" y2="80.73"/>
  <line class="cls-1" x1="398.21" y1="257.07" x2="257.11" y2="115.97"/>
  <line class="cls-1" x1="398.39" y1="292.81" x2="221.66" y2="116.08"/>
  <line class="cls-1" x1="398.47" y1="328.17" x2="221.69" y2="151.38"/>
  <line class="cls-1" x1="398.64" y1="363.39" x2="205.07" y2="169.82"/>
  <line class="cls-1" x1="398.62" y1="398.73" x2="257.2" y2="257.3"/>
  <line class="cls-1" x1="398.62" y1="434.08" x2="257.2" y2="292.66"/>
  <line class="cls-1" x1="398.45" y1="469.62" x2="256.95" y2="328.12"/>
  <line class="cls-1" x1="363.08" y1="469.62" x2="256.99" y2="363.53"/>
  <line class="cls-1" x1="327.84" y1="469.66" x2="257.05" y2="398.87"/>
  <line class="cls-1" x1="292.33" y1="469.63" x2="256.95" y2="434.25"/>
  <line class="cls-1" x1="256.99" y1="363.53" x2="398.39" y2="222.13"/>
  <line class="cls-1" x1="256.99" y1="398.89" x2="398.51" y2="257.37"/>
  <line class="cls-1" x1="256.98" y1="434.22" x2="398.39" y2="292.81"/>
  <line class="cls-1" x1="292.37" y1="469.67" x2="398.46" y2="363.57"/>
  <line class="cls-1" x1="327.9" y1="469.6" x2="398.69" y2="398.8"/>
  <line class="cls-1" x1="363.08" y1="469.62" x2="398.24" y2="434.46"/>
  <line class="cls-1" x1="256.98" y1="469.71" x2="398.5" y2="328.19"/>
  <line class="cls-1" x1="257.03" y1="328.04" x2="398.3" y2="186.77"/>
  <line class="cls-1" x1="257.23" y1="292.61" x2="398.44" y2="151.4"/>
  <line class="cls-1" x1="257.2" y1="257.3" x2="398.41" y2="116.09"/>
  <line class="cls-1" x1="257.16" y1="221.91" x2="398.4" y2="80.67"/>
  <line class="cls-1" x1="187.41" y1="256.42" x2="398.46" y2="45.37"/>
  <line class="cls-1" x1="187.34" y1="221.02" x2="398.45" y2="9.91"/>
  <line class="cls-1" x1="205.07" y1="168.01" x2="363.06" y2="10.02"/>
</svg>