<?xml version="1.0" encoding="UTF-8"?>
<svg id="_1" data-name="1" xmlns="http://www.w3.org/2000/svg" viewBox="0 0 372.77 479.29">
  <defs>
    <style>
      .cls-1 {
        fill: none;
        stroke: #1d1d1b;
        stroke-linecap: round;
        stroke-miterlimit: 10;
        stroke-width: 10px;
      }
    </style>
  </defs>
  <line class="cls-1" x1="171.26" y1="49.19" x2="135.9" y2="13.83"/>
  <line class="cls-1" x1="171.25" y1="190.47" x2="65.34" y2="84.56"/>
  <line class="cls-1" x1="171.53" y1="154.98" x2="66.04" y2="49.5"/>
  <line class="cls-1" x1="171.59" y1="119.73" x2="101.09" y2="49.23"/>
  <line class="cls-1" x1="171.22" y1="84.33" x2="100.96" y2="14.08"/>
  <line class="cls-1" x1="171.51" y1="225.88" x2="30.69" y2="85.05"/>
  <line class="cls-1" x1="171.41" y1="261.13" x2="29.9" y2="119.62"/>
  <line class="cls-1" x1="171.43" y1="296.5" x2="30.28" y2="155.36"/>
  <line class="cls-1" x1="171.74" y1="331.82" x2="30.44" y2="190.51"/>
  <line class="cls-1" x1="171.63" y1="367.19" x2="30.12" y2="225.67"/>
  <line class="cls-1" x1="171.34" y1="402.66" x2="30.2" y2="261.52"/>
  <line class="cls-1" x1="206.78" y1="473.28" x2="30.24" y2="296.74"/>
  <line class="cls-1" x1="171.43" y1="473.28" x2="30.09" y2="331.95"/>
  <line class="cls-1" x1="136.07" y1="473.28" x2="30.02" y2="367.23"/>
  <line class="cls-1" x1="30.09" y1="367.3" x2="171.34" y2="226.05"/>
  <line class="cls-1" x1="30.09" y1="402.66" x2="171.51" y2="261.23"/>
  <line class="cls-1" x1="65.35" y1="402.56" x2="171.41" y2="296.49"/>
  <line class="cls-1" x1="100.8" y1="438.02" x2="171.63" y2="367.19"/>
  <line class="cls-1" x1="100.84" y1="473.16" x2="171.34" y2="402.66"/>
  <line class="cls-1" x1="136.15" y1="473.2" x2="171.43" y2="437.93"/>
  <line class="cls-1" x1="67.51" y1="436.06" x2="171.76" y2="331.8"/>
  <line class="cls-1" x1="29.93" y1="331.79" x2="171.25" y2="190.47"/>
  <line class="cls-1" x1="30" y1="296.5" x2="171.53" y2="154.98"/>
  <line class="cls-1" x1="30" y1="261.32" x2="171.43" y2="119.9"/>
  <line class="cls-1" x1="30" y1="225.79" x2="171.34" y2="84.45"/>
  <line class="cls-1" x1="30.24" y1="190.31" x2="206.75" y2="13.8"/>
  <line class="cls-1" x1="30" y1="155.08" x2="171.34" y2="13.74"/>
  <line class="cls-1" x1="29.9" y1="119.62" x2="135.79" y2="13.72"/>
  <line class="cls-1" x1="206.52" y1="49.19" x2="241.87" y2="13.83"/>
  <line class="cls-1" x1="206.52" y1="190.47" x2="312.44" y2="84.56"/>
  <line class="cls-1" x1="206.25" y1="154.98" x2="311.73" y2="49.5"/>
  <line class="cls-1" x1="206.18" y1="119.73" x2="276.68" y2="49.23"/>
  <line class="cls-1" x1="206.55" y1="84.33" x2="276.81" y2="14.08"/>
  <line class="cls-1" x1="206.26" y1="225.88" x2="347.08" y2="85.05"/>
  <line class="cls-1" x1="206.36" y1="261.13" x2="347.88" y2="119.62"/>
  <line class="cls-1" x1="206.35" y1="296.5" x2="347.49" y2="155.36"/>
  <line class="cls-1" x1="206.03" y1="331.82" x2="347.34" y2="190.51"/>
  <line class="cls-1" x1="206.14" y1="367.19" x2="347.65" y2="225.67"/>
  <line class="cls-1" x1="206.43" y1="402.66" x2="347.57" y2="261.52"/>
  <line class="cls-1" x1="170.99" y1="473.28" x2="347.53" y2="296.74"/>
  <line class="cls-1" x1="206.35" y1="473.28" x2="347.68" y2="331.95"/>
  <line class="cls-1" x1="241.7" y1="473.28" x2="347.75" y2="367.23"/>
  <line class="cls-1" x1="347.68" y1="367.3" x2="206.43" y2="226.05"/>
  <line class="cls-1" x1="347.68" y1="402.66" x2="206.26" y2="261.23"/>
  <line class="cls-1" x1="312.43" y1="402.56" x2="206.36" y2="296.49"/>
  <line class="cls-1" x1="276.97" y1="438.02" x2="206.14" y2="367.19"/>
  <line class="cls-1" x1="276.94" y1="473.16" x2="206.43" y2="402.66"/>
  <line class="cls-1" x1="241.62" y1="473.2" x2="206.35" y2="437.93"/>
  <line class="cls-1" x1="312.15" y1="437.94" x2="206.01" y2="331.8"/>
  <line class="cls-1" x1="347.84" y1="331.79" x2="206.52" y2="190.47"/>
  <line class="cls-1" x1="347.77" y1="296.5" x2="206.25" y2="154.98"/>
  <line class="cls-1" x1="347.77" y1="261.32" x2="206.35" y2="119.9"/>
  <line class="cls-1" x1="347.77" y1="225.79" x2="206.43" y2="84.45"/>
  <line class="cls-1" x1="347.53" y1="190.31" x2="171.02" y2="13.8"/>
  <line class="cls-1" x1="347.77" y1="155.08" x2="206.43" y2="13.74"/>
  <line class="cls-1" x1="347.88" y1="119.62" x2="241.98" y2="13.72"/>
</svg>