<?xml version="1.0" encoding="UTF-8"?>
<svg id="_1" data-name="1" xmlns="http://www.w3.org/2000/svg" viewBox="0 0 372.77 479.29">
  <defs>
    <style>
      .cls-1 {
        fill: none;
        stroke: #1d1d1b;
        stroke-linecap: round;
        stroke-miterlimit: 10;
        stroke-width: 10px;
      }
    </style>
  </defs>
  <line class="cls-1" x1="178.54" y1="435.91" x2="143.19" y2="471.27"/>
  <line class="cls-1" x1="178.54" y1="294.62" x2="37.68" y2="435.48"/>
  <line class="cls-1" x1="355.41" y1="117.79" x2="214.96" y2="258.24"/>
  <line class="cls-1" x1="178.81" y1="330.11" x2="37.89" y2="471.04"/>
  <line class="cls-1" x1="178.88" y1="365.36" x2="73.23" y2="471.02"/>
  <line class="cls-1" x1="178.51" y1="400.76" x2="108.25" y2="471.02"/>
  <line class="cls-1" x1="356.47" y1="81.54" x2="37.98" y2="400.04"/>
  <line class="cls-1" x1="178.7" y1="223.96" x2="37.18" y2="365.48"/>
  <line class="cls-1" x1="320.05" y1="82.44" x2="213.78" y2="188.71"/>
  <line class="cls-1" x1="355.41" y1="153.15" x2="250.32" y2="258.24"/>
  <line class="cls-1" x1="320.52" y1="46.68" x2="214.63" y2="152.57"/>
  <line class="cls-1" x1="284.7" y1="47.08" x2="215.06" y2="116.72"/>
  <line class="cls-1" x1="284.7" y1="11.72" x2="213.98" y2="82.44"/>
  <line class="cls-1" x1="178.72" y1="188.59" x2="37.57" y2="329.74"/>
  <line class="cls-1" x1="179.03" y1="153.28" x2="37.72" y2="294.58"/>
  <line class="cls-1" x1="178.92" y1="117.91" x2="37.41" y2="259.42"/>
  <line class="cls-1" x1="178.63" y1="82.44" x2="37.49" y2="223.58"/>
  <line class="cls-1" x1="214.07" y1="11.81" x2="37.53" y2="188.36"/>
  <line class="cls-1" x1="178.72" y1="11.81" x2="37.38" y2="153.15"/>
  <line class="cls-1" x1="143.36" y1="11.81" x2="37.31" y2="117.86"/>
  <line class="cls-1" x1="108.13" y1="11.93" x2="37.5" y2="82.56"/>
  <line class="cls-1" x1="72.81" y1="11.8" x2="37.35" y2="47.26"/>
  <line class="cls-1" x1="249.34" y1="11.72" x2="214.54" y2="46.53"/>
  <line class="cls-1" x1="37.38" y1="117.79" x2="178.63" y2="259.04"/>
  <line class="cls-1" x1="37.38" y1="82.44" x2="214.07" y2="259.13"/>
  <line class="cls-1" x1="37.28" y1="47.18" x2="178.7" y2="188.61"/>
  <line class="cls-1" x1="72.81" y1="11.8" x2="178.92" y2="117.91"/>
  <line class="cls-1" x1="108.13" y1="11.93" x2="178.63" y2="82.44"/>
  <line class="cls-1" x1="143.44" y1="11.89" x2="178.72" y2="47.17"/>
  <line class="cls-1" x1="37.43" y1="11.67" x2="179.05" y2="153.29"/>
  <line class="cls-1" x1="178.79" y1="11.74" x2="355.49" y2="188.43"/>
  <line class="cls-1" x1="249.48" y1="11.86" x2="355.41" y2="117.79"/>
  <line class="cls-1" x1="214.6" y1="117.18" x2="319.98" y2="222.56"/>
  <line class="cls-1" x1="215.02" y1="152.95" x2="284.6" y2="222.53"/>
  <line class="cls-1" x1="215.71" y1="223.27" x2="250.5" y2="258.06"/>
  <line class="cls-1" x1="214.07" y1="188.59" x2="285.66" y2="260.18"/>
  <line class="cls-1" x1="214.07" y1="11.81" x2="355.41" y2="153.15"/>
  <line class="cls-1" x1="215.76" y1="82.98" x2="320.67" y2="187.89"/>
  <line class="cls-1" x1="37.22" y1="153.31" x2="178.54" y2="294.62"/>
  <line class="cls-1" x1="37.29" y1="188.59" x2="178.81" y2="330.11"/>
  <line class="cls-1" x1="37.29" y1="223.77" x2="178.72" y2="365.2"/>
  <line class="cls-1" x1="37.29" y1="259.3" x2="178.63" y2="400.64"/>
  <line class="cls-1" x1="37.53" y1="294.78" x2="178.6" y2="435.85"/>
  <line class="cls-1" x1="37.29" y1="330.02" x2="178.63" y2="471.35"/>
  <line class="cls-1" x1="37.18" y1="365.48" x2="143.08" y2="471.37"/>
  <line class="cls-1" x1="37.79" y1="400.23" x2="108.42" y2="470.85"/>
  <line class="cls-1" x1="37.68" y1="435.48" x2="73.23" y2="471.02"/>
</svg>