<?xml version="1.0" encoding="UTF-8"?>
<svg id="_1" data-name="1" xmlns="http://www.w3.org/2000/svg" viewBox="0 0 372.77 549.72">
  <defs>
    <style>
      .cls-1 {
        fill: none;
        stroke: #1d1d1b;
        stroke-linecap: round;
        stroke-miterlimit: 10;
        stroke-width: 10px;
      }
    </style>
  </defs>
  <line class="cls-1" x1="168.75" y1="46.69" x2="133.4" y2="11.34"/>
  <line class="cls-1" x1="168.74" y1="187.98" x2="62.83" y2="82.07"/>
  <line class="cls-1" x1="169.02" y1="152.49" x2="63.54" y2="47.01"/>
  <line class="cls-1" x1="169.09" y1="117.24" x2="98.59" y2="46.73"/>
  <line class="cls-1" x1="168.72" y1="81.84" x2="98.46" y2="11.58"/>
  <line class="cls-1" x1="169.01" y1="223.39" x2="28.19" y2="82.56"/>
  <line class="cls-1" x1="168.91" y1="258.64" x2="27.39" y2="117.12"/>
  <line class="cls-1" x1="168.92" y1="294.01" x2="27.78" y2="152.86"/>
  <line class="cls-1" x1="169.24" y1="329.33" x2="27.93" y2="188.02"/>
  <line class="cls-1" x1="169.13" y1="364.69" x2="27.62" y2="223.18"/>
  <line class="cls-1" x1="168.84" y1="400.17" x2="27.7" y2="259.03"/>
  <line class="cls-1" x1="204.28" y1="470.79" x2="27.74" y2="294.25"/>
  <line class="cls-1" x1="238.93" y1="540.8" x2="27.59" y2="329.45"/>
  <line class="cls-1" x1="133.57" y1="470.79" x2="27.52" y2="364.74"/>
  <line class="cls-1" x1="27.59" y1="364.81" x2="168.84" y2="223.56"/>
  <line class="cls-1" x1="27.59" y1="400.17" x2="169.01" y2="258.74"/>
  <line class="cls-1" x1="62.84" y1="400.07" x2="168.91" y2="294"/>
  <line class="cls-1" x1="98.3" y1="435.52" x2="169.13" y2="364.69"/>
  <line class="cls-1" x1="98.33" y1="470.67" x2="168.84" y2="400.17"/>
  <line class="cls-1" x1="133.65" y1="470.71" x2="168.92" y2="435.44"/>
  <line class="cls-1" x1="168.52" y1="542.15" x2="220.89" y2="489.78"/>
  <line class="cls-1" x1="203.88" y1="542.15" x2="256.25" y2="489.78"/>
  <line class="cls-1" x1="65" y1="433.56" x2="169.26" y2="329.31"/>
  <line class="cls-1" x1="27.43" y1="329.3" x2="168.74" y2="187.98"/>
  <line class="cls-1" x1="27.5" y1="294.01" x2="169.02" y2="152.49"/>
  <line class="cls-1" x1="27.5" y1="258.83" x2="168.92" y2="117.4"/>
  <line class="cls-1" x1="27.5" y1="223.3" x2="168.84" y2="81.96"/>
  <line class="cls-1" x1="27.74" y1="187.82" x2="204.25" y2="11.31"/>
  <line class="cls-1" x1="27.5" y1="152.59" x2="168.84" y2="11.25"/>
  <line class="cls-1" x1="27.39" y1="117.12" x2="133.29" y2="11.23"/>
  <line class="cls-1" x1="204.01" y1="46.69" x2="239.37" y2="11.34"/>
  <line class="cls-1" x1="204.02" y1="187.98" x2="309.93" y2="82.07"/>
  <line class="cls-1" x1="203.74" y1="152.49" x2="309.23" y2="47.01"/>
  <line class="cls-1" x1="203.68" y1="117.24" x2="274.18" y2="46.73"/>
  <line class="cls-1" x1="204.05" y1="81.84" x2="274.31" y2="11.58"/>
  <line class="cls-1" x1="203.75" y1="223.39" x2="344.58" y2="82.56"/>
  <line class="cls-1" x1="203.86" y1="258.64" x2="345.37" y2="117.12"/>
  <line class="cls-1" x1="203.84" y1="294.01" x2="344.99" y2="152.86"/>
  <line class="cls-1" x1="203.53" y1="329.33" x2="344.83" y2="188.02"/>
  <line class="cls-1" x1="203.64" y1="364.69" x2="345.15" y2="223.18"/>
  <line class="cls-1" x1="203.93" y1="400.17" x2="345.07" y2="259.03"/>
  <line class="cls-1" x1="150.5" y1="488.77" x2="345.03" y2="294.25"/>
  <line class="cls-1" x1="203.84" y1="470.79" x2="345.18" y2="329.45"/>
  <line class="cls-1" x1="239.2" y1="470.79" x2="345.25" y2="364.74"/>
  <line class="cls-1" x1="345.18" y1="364.81" x2="203.93" y2="223.56"/>
  <line class="cls-1" x1="345.18" y1="400.17" x2="203.75" y2="258.74"/>
  <line class="cls-1" x1="309.92" y1="400.07" x2="203.86" y2="294"/>
  <line class="cls-1" x1="274.47" y1="435.52" x2="203.64" y2="364.69"/>
  <line class="cls-1" x1="274.43" y1="470.67" x2="203.93" y2="400.17"/>
  <line class="cls-1" x1="239.12" y1="470.71" x2="203.84" y2="435.44"/>
  <line class="cls-1" x1="256.69" y1="524.97" x2="221.41" y2="489.69"/>
  <line class="cls-1" x1="309.65" y1="435.45" x2="203.51" y2="329.31"/>
  <line class="cls-1" x1="345.34" y1="329.3" x2="204.02" y2="187.98"/>
  <line class="cls-1" x1="345.27" y1="294.01" x2="203.74" y2="152.49"/>
  <line class="cls-1" x1="345.27" y1="258.83" x2="203.84" y2="117.4"/>
  <line class="cls-1" x1="345.27" y1="223.3" x2="203.93" y2="81.96"/>
  <line class="cls-1" x1="345.03" y1="187.82" x2="168.52" y2="11.31"/>
  <line class="cls-1" x1="345.27" y1="152.59" x2="203.93" y2="11.25"/>
  <line class="cls-1" x1="345.37" y1="117.12" x2="239.48" y2="11.23"/>
</svg>