<?xml version="1.0" encoding="UTF-8"?>
<svg id="_1" data-name="1" xmlns="http://www.w3.org/2000/svg" viewBox="0 0 542.77 479.29">
  <defs>
    <style>
      .cls-1 {
        fill: none;
        stroke: #1d1d1b;
        stroke-linecap: round;
        stroke-miterlimit: 10;
        stroke-width: 10px;
      }
    </style>
  </defs>
  <line class="cls-1" x1="132.16" y1="402.65" x2="202.8" y2="473.29"/>
  <line class="cls-1" x1="97.17" y1="332.31" x2="202.62" y2="437.75"/>
  <line class="cls-1" x1="96.86" y1="296.38" x2="238.28" y2="437.8"/>
  <line class="cls-1" x1="62" y1="226.06" x2="238.15" y2="402.22"/>
  <line class="cls-1" x1="25.74" y1="48.4" x2="202.96" y2="225.63"/>
  <line class="cls-1" x1="26.02" y1="84.19" x2="202.89" y2="261.06"/>
  <line class="cls-1" x1="26.64" y1="119.99" x2="273.51" y2="366.86"/>
  <line class="cls-1" x1="61.37" y1="190.08" x2="238.37" y2="367.08"/>
  <line class="cls-1" x1="25.8" y1="13.44" x2="202.8" y2="190.44"/>
  <line class="cls-1" x1="61.3" y1="13.37" x2="167.58" y2="119.65"/>
  <line class="cls-1" x1="97.15" y1="14.08" x2="167.26" y2="84.19"/>
  <line class="cls-1" x1="132.08" y1="13.3" x2="167.44" y2="48.66"/>
  <line class="cls-1" x1="238.19" y1="296.36" x2="132.03" y2="402.52"/>
  <line class="cls-1" x1="202.8" y1="296.15" x2="131.9" y2="367.04"/>
  <line class="cls-1" x1="202.74" y1="261.2" x2="97.39" y2="366.55"/>
  <line class="cls-1" x1="202.8" y1="225.79" x2="97.36" y2="331.23"/>
  <line class="cls-1" x1="202.8" y1="190.44" x2="96.69" y2="296.55"/>
  <line class="cls-1" x1="166.97" y1="155.19" x2="60.73" y2="261.44"/>
  <line class="cls-1" x1="167.58" y1="119.65" x2="61.88" y2="225.34"/>
  <line class="cls-1" x1="167.26" y1="84.19" x2="61.37" y2="190.08"/>
  <line class="cls-1" x1="167.26" y1="48.84" x2="61.47" y2="154.63"/>
  <line class="cls-1" x1="166.69" y1="14.05" x2="26.5" y2="154.24"/>
  <line class="cls-1" x1="131.7" y1="13.69" x2="25.84" y2="119.55"/>
  <line class="cls-1" x1="96.55" y1="13.48" x2="26.12" y2="83.91"/>
  <line class="cls-1" x1="60.93" y1="13.21" x2="25.84" y2="48.3"/>
  <line class="cls-1" x1="380.31" y1="189.76" x2="132.17" y2="437.89"/>
  <line class="cls-1" x1="380.32" y1="225.12" x2="167.78" y2="437.66"/>
  <line class="cls-1" x1="238.15" y1="402.22" x2="169.01" y2="471.36"/>
  <line class="cls-1" x1="311.33" y1="402.65" x2="381.97" y2="473.29"/>
  <line class="cls-1" x1="260.3" y1="316.26" x2="381.79" y2="437.75"/>
  <line class="cls-1" x1="276.03" y1="296.38" x2="417.46" y2="437.8"/>
  <line class="cls-1" x1="241.17" y1="226.06" x2="417.33" y2="402.22"/>
  <line class="cls-1" x1="204.91" y1="48.4" x2="380.65" y2="224.14"/>
  <line class="cls-1" x1="205.19" y1="84.19" x2="452.86" y2="331.86"/>
  <line class="cls-1" x1="205.81" y1="119.99" x2="452.68" y2="366.86"/>
  <line class="cls-1" x1="240.55" y1="190.08" x2="417.54" y2="367.08"/>
  <line class="cls-1" x1="204.97" y1="13.44" x2="381.97" y2="190.44"/>
  <line class="cls-1" x1="240.47" y1="13.37" x2="346.75" y2="119.65"/>
  <line class="cls-1" x1="381.86" y1="119.62" x2="487.99" y2="225.74"/>
  <line class="cls-1" x1="276.32" y1="14.08" x2="346.44" y2="84.19"/>
  <line class="cls-1" x1="311.26" y1="13.3" x2="346.62" y2="48.66"/>
  <line class="cls-1" x1="419.76" y1="227.87" x2="488.13" y2="296.24"/>
  <line class="cls-1" x1="418.77" y1="261.26" x2="487.13" y2="329.62"/>
  <line class="cls-1" x1="417.77" y1="190.35" x2="488.3" y2="260.89"/>
  <line class="cls-1" x1="382.38" y1="84.51" x2="487.99" y2="190.13"/>
  <line class="cls-1" x1="382.15" y1="48.84" x2="488.22" y2="154.9"/>
  <line class="cls-1" x1="382.51" y1="13.83" x2="523.4" y2="154.72"/>
  <line class="cls-1" x1="417.51" y1="13.48" x2="523.4" y2="119.37"/>
  <line class="cls-1" x1="452.86" y1="13.48" x2="523.62" y2="84.24"/>
  <line class="cls-1" x1="488.04" y1="13.3" x2="523.57" y2="48.84"/>
  <line class="cls-1" x1="488.14" y1="225.59" x2="311.21" y2="402.52"/>
  <line class="cls-1" x1="487.99" y1="190.13" x2="311.08" y2="367.04"/>
  <line class="cls-1" x1="523.51" y1="119.61" x2="417.51" y2="225.62"/>
  <line class="cls-1" x1="381.92" y1="261.2" x2="276.57" y2="366.55"/>
  <line class="cls-1" x1="523.51" y1="48.9" x2="417.65" y2="154.76"/>
  <line class="cls-1" x1="523.51" y1="13.54" x2="276.08" y2="260.97"/>
  <line class="cls-1" x1="523.62" y1="84.24" x2="417.72" y2="190.13"/>
  <line class="cls-1" x1="488.04" y1="13.3" x2="381.79" y2="119.55"/>
  <line class="cls-1" x1="346.15" y1="155.19" x2="239.9" y2="261.44"/>
  <line class="cls-1" x1="346.75" y1="119.65" x2="241.06" y2="225.34"/>
  <line class="cls-1" x1="346.44" y1="84.19" x2="240.55" y2="190.08"/>
  <line class="cls-1" x1="346.44" y1="48.84" x2="240.64" y2="154.63"/>
  <line class="cls-1" x1="452.08" y1="13.13" x2="382.03" y2="83.17"/>
  <line class="cls-1" x1="345.87" y1="14.05" x2="97.96" y2="261.95"/>
  <line class="cls-1" x1="310.87" y1="13.69" x2="205.01" y2="119.55"/>
  <line class="cls-1" x1="275.72" y1="13.48" x2="205.29" y2="83.91"/>
  <line class="cls-1" x1="240.1" y1="13.21" x2="205.01" y2="48.3"/>
  <line class="cls-1" x1="417.38" y1="13.61" x2="382.28" y2="48.7"/>
  <line class="cls-1" x1="488.31" y1="260.93" x2="311.35" y2="437.89"/>
  <line class="cls-1" x1="488.26" y1="296.37" x2="346.96" y2="437.66"/>
  <line class="cls-1" x1="417.33" y1="402.22" x2="348.18" y2="471.36"/>
</svg>