<?xml version="1.0" encoding="UTF-8"?>
<svg id="_1" data-name="1" xmlns="http://www.w3.org/2000/svg" viewBox="0 0 372.77 479.29">
  <defs>
    <style>
      .cls-1 {
        fill: none;
        stroke: #1d1d1b;
        stroke-linecap: round;
        stroke-miterlimit: 10;
        stroke-width: 10px;
      }
    </style>
  </defs>
  <line class="cls-1" x1="169.67" y1="44.68" x2="134.4" y2="9.4"/>
  <line class="cls-1" x1="346.19" y1="362.63" x2="28.51" y2="44.95"/>
  <line class="cls-1" x1="169.75" y1="115.53" x2="63.68" y2="9.46"/>
  <line class="cls-1" x1="169.72" y1="80.06" x2="99.05" y2="9.39"/>
  <line class="cls-1" x1="187.38" y1="239.22" x2="28.3" y2="80.14"/>
  <line class="cls-1" x1="346.31" y1="433.26" x2="28.42" y2="115.37"/>
  <line class="cls-1" x1="134.4" y1="292.19" x2="101.43" y2="259.22"/>
  <line class="cls-1" x1="134.53" y1="327.38" x2="63.85" y2="256.7"/>
  <line class="cls-1" x1="134.6" y1="362.81" x2="63.79" y2="292"/>
  <line class="cls-1" x1="134.6" y1="398.16" x2="63.84" y2="327.4"/>
  <line class="cls-1" x1="134.47" y1="433.74" x2="28.26" y2="327.53"/>
  <line class="cls-1" x1="134.39" y1="469.03" x2="28.3" y2="362.94"/>
  <line class="cls-1" x1="99.15" y1="469.07" x2="28.36" y2="398.28"/>
  <line class="cls-1" x1="63.64" y1="469.04" x2="28.26" y2="433.66"/>
  <line class="cls-1" x1="28.3" y1="362.94" x2="203.95" y2="187.29"/>
  <line class="cls-1" x1="28.3" y1="398.29" x2="186.84" y2="239.76"/>
  <line class="cls-1" x1="28.29" y1="433.63" x2="134.53" y2="327.38"/>
  <line class="cls-1" x1="63.68" y1="469.08" x2="134.6" y2="398.16"/>
  <line class="cls-1" x1="99.21" y1="469" x2="133.68" y2="434.53"/>
  <line class="cls-1" x1="28.29" y1="469.12" x2="134.6" y2="362.81"/>
  <line class="cls-1" x1="63.79" y1="292" x2="205.19" y2="150.6"/>
  <line class="cls-1" x1="97.8" y1="222.75" x2="169.75" y2="150.81"/>
  <line class="cls-1" x1="63.66" y1="221.56" x2="169.72" y2="115.5"/>
  <line class="cls-1" x1="62.42" y1="187.37" x2="169.71" y2="80.07"/>
  <line class="cls-1" x1="28.38" y1="186.17" x2="169.77" y2="44.78"/>
  <line class="cls-1" x1="28.28" y1="150.79" x2="169.76" y2="9.31"/>
  <line class="cls-1" x1="28.48" y1="115.31" x2="134.37" y2="9.43"/>
  <line class="cls-1" x1="28.34" y1="80.1" x2="99.05" y2="9.39"/>
  <line class="cls-1" x1="28.33" y1="44.76" x2="63.65" y2="9.43"/>
  <line class="cls-1" x1="240.28" y1="150.33" x2="344.8" y2="45.81"/>
  <line class="cls-1" x1="238.95" y1="116.28" x2="344.98" y2="10.25"/>
  <line class="cls-1" x1="238.93" y1="81.02" x2="309.63" y2="10.32"/>
  <line class="cls-1" x1="238.95" y1="45.57" x2="274.27" y2="10.25"/>
  <line class="cls-1" x1="185.93" y1="240.08" x2="345.01" y2="81"/>
  <line class="cls-1" x1="169.47" y1="291.66" x2="344.9" y2="116.23"/>
  <line class="cls-1" x1="169.57" y1="327.12" x2="309.68" y2="187.01"/>
  <line class="cls-1" x1="203.53" y1="328.43" x2="274.32" y2="257.65"/>
  <line class="cls-1" x1="203.36" y1="363.66" x2="306.53" y2="260.5"/>
  <line class="cls-1" x1="203.38" y1="399" x2="309.52" y2="292.86"/>
  <line class="cls-1" x1="203.38" y1="434.35" x2="344.81" y2="292.93"/>
  <line class="cls-1" x1="203.56" y1="469.88" x2="345.05" y2="328.39"/>
  <line class="cls-1" x1="238.93" y1="469.89" x2="345.02" y2="363.8"/>
  <line class="cls-1" x1="274.17" y1="469.93" x2="344.95" y2="399.14"/>
  <line class="cls-1" x1="309.68" y1="469.9" x2="345.06" y2="434.52"/>
  <line class="cls-1" x1="345.01" y1="399.16" x2="186.48" y2="240.62"/>
  <line class="cls-1" x1="309.64" y1="469.94" x2="203.54" y2="363.84"/>
  <line class="cls-1" x1="274.1" y1="469.86" x2="203.31" y2="399.07"/>
  <line class="cls-1" x1="238.92" y1="469.89" x2="203.76" y2="434.73"/>
  <line class="cls-1" x1="345.03" y1="469.98" x2="26.45" y2="151.41"/>
  <line class="cls-1" x1="344.98" y1="328.31" x2="26.55" y2="9.89"/>
  <line class="cls-1" x1="273.15" y1="221.25" x2="238.96" y2="187.06"/>
  <line class="cls-1" x1="309.6" y1="222.37" x2="238.92" y2="151.69"/>
  <line class="cls-1" x1="309.68" y1="187.01" x2="238.95" y2="116.28"/>
  <line class="cls-1" x1="309.49" y1="151.58" x2="238.93" y2="81.02"/>
  <line class="cls-1" x1="345.04" y1="151.65" x2="238.83" y2="45.45"/>
  <line class="cls-1" x1="344.84" y1="116.18" x2="238.95" y2="10.29"/>
  <line class="cls-1" x1="344.98" y1="80.96" x2="274.27" y2="10.25"/>
  <line class="cls-1" x1="344.99" y1="45.62" x2="309.66" y2="10.29"/>
</svg>