<?xml version="1.0" encoding="UTF-8"?>
<svg id="_1" data-name="1" xmlns="http://www.w3.org/2000/svg" viewBox="0 0 372.77 479.29">
  <defs>
    <style>
      .cls-1 {
        fill: none;
        stroke: #1d1d1b;
        stroke-linecap: round;
        stroke-miterlimit: 10;
        stroke-width: 10px;
      }
    </style>
  </defs>
  <line class="cls-1" x1="103.35" y1="364.85" x2="208.19" y2="469.7"/>
  <line class="cls-1" x1="102.49" y1="398.26" x2="173.22" y2="468.99"/>
  <line class="cls-1" x1="103.46" y1="434.59" x2="137.62" y2="468.74"/>
  <line class="cls-1" x1="102.57" y1="328.72" x2="243.61" y2="469.76"/>
  <line class="cls-1" x1="102.25" y1="292.79" x2="243.28" y2="433.82"/>
  <line class="cls-1" x1="67.39" y1="222.47" x2="243.55" y2="398.63"/>
  <line class="cls-1" x1="31.13" y1="44.81" x2="208.36" y2="222.04"/>
  <line class="cls-1" x1="31.41" y1="80.6" x2="241.54" y2="290.73"/>
  <line class="cls-1" x1="32.03" y1="116.4" x2="243.75" y2="328.12"/>
  <line class="cls-1" x1="66.77" y1="186.49" x2="243.76" y2="363.49"/>
  <line class="cls-1" x1="31.19" y1="9.85" x2="208.19" y2="186.85"/>
  <line class="cls-1" x1="66.69" y1="9.78" x2="172.97" y2="116.06"/>
  <line class="cls-1" x1="208.08" y1="116.03" x2="314.21" y2="222.15"/>
  <line class="cls-1" x1="102.54" y1="10.49" x2="172.66" y2="80.6"/>
  <line class="cls-1" x1="137.48" y1="9.71" x2="172.83" y2="45.06"/>
  <line class="cls-1" x1="245.98" y1="224.28" x2="279.03" y2="257.33"/>
  <line class="cls-1" x1="244.99" y1="257.67" x2="279" y2="291.68"/>
  <line class="cls-1" x1="243.99" y1="186.76" x2="314.52" y2="257.29"/>
  <line class="cls-1" x1="208.6" y1="80.92" x2="314.21" y2="186.54"/>
  <line class="cls-1" x1="208.37" y1="45.24" x2="314.44" y2="151.31"/>
  <line class="cls-1" x1="208.72" y1="10.24" x2="349.61" y2="151.13"/>
  <line class="cls-1" x1="243.73" y1="9.89" x2="349.61" y2="115.78"/>
  <line class="cls-1" x1="279.08" y1="9.89" x2="349.84" y2="80.65"/>
  <line class="cls-1" x1="314.26" y1="9.71" x2="349.79" y2="45.24"/>
  <line class="cls-1" x1="314.36" y1="222" x2="103.16" y2="433.2"/>
  <line class="cls-1" x1="314.21" y1="186.54" x2="102.49" y2="398.26"/>
  <line class="cls-1" x1="349.73" y1="116.02" x2="243.73" y2="222.02"/>
  <line class="cls-1" x1="208.14" y1="257.61" x2="102.79" y2="362.96"/>
  <line class="cls-1" x1="208.19" y1="222.2" x2="102.76" y2="327.64"/>
  <line class="cls-1" x1="208.19" y1="186.85" x2="102.08" y2="292.96"/>
  <line class="cls-1" x1="349.73" y1="45.31" x2="243.87" y2="151.17"/>
  <line class="cls-1" x1="349.73" y1="9.95" x2="102.3" y2="257.38"/>
  <line class="cls-1" x1="349.84" y1="80.65" x2="243.94" y2="186.54"/>
  <line class="cls-1" x1="314.26" y1="9.71" x2="208.01" y2="115.96"/>
  <line class="cls-1" x1="172.37" y1="151.6" x2="66.12" y2="257.85"/>
  <line class="cls-1" x1="172.97" y1="116.06" x2="67.28" y2="221.75"/>
  <line class="cls-1" x1="172.66" y1="80.6" x2="66.77" y2="186.49"/>
  <line class="cls-1" x1="172.66" y1="45.24" x2="66.86" y2="151.04"/>
  <line class="cls-1" x1="278.3" y1="9.54" x2="208.25" y2="79.58"/>
  <line class="cls-1" x1="172.09" y1="10.46" x2="31.9" y2="150.65"/>
  <line class="cls-1" x1="137.09" y1="10.1" x2="31.23" y2="115.96"/>
  <line class="cls-1" x1="101.94" y1="9.89" x2="31.51" y2="80.32"/>
  <line class="cls-1" x1="66.32" y1="9.62" x2="31.23" y2="44.71"/>
  <line class="cls-1" x1="243.59" y1="10.02" x2="208.5" y2="45.11"/>
  <line class="cls-1" x1="243.75" y1="328.12" x2="104.12" y2="467.75"/>
  <line class="cls-1" x1="243.76" y1="363.49" x2="138.06" y2="469.19"/>
  <line class="cls-1" x1="243.55" y1="398.63" x2="174.4" y2="467.77"/>
  <line class="cls-1" x1="242.35" y1="434.75" x2="207.96" y2="469.14"/>
</svg>