<?xml version="1.0" encoding="UTF-8"?>
<svg id="_1" data-name="1" xmlns="http://www.w3.org/2000/svg" viewBox="0 0 372.77 479.29">
  <defs>
    <style>
      .cls-1 {
        fill: none;
        stroke: #1d1d1b;
        stroke-linecap: round;
        stroke-miterlimit: 10;
        stroke-width: 10px;
      }
    </style>
  </defs>
  <line class="cls-1" x1="355.32" y1="118.52" x2="249.03" y2="12.24"/>
  <line class="cls-1" x1="355.13" y1="153.4" x2="213.92" y2="12.19"/>
  <line class="cls-1" x1="319.92" y1="153.51" x2="178.67" y2="12.25"/>
  <line class="cls-1" x1="178.28" y1="47.56" x2="143" y2="12.28"/>
  <line class="cls-1" x1="319.96" y1="189.24" x2="213.84" y2="83.11"/>
  <line class="cls-1" x1="178.28" y1="188.99" x2="37.12" y2="47.82"/>
  <line class="cls-1" x1="355.13" y1="365.83" x2="214.01" y2="224.71"/>
  <line class="cls-1" x1="178.37" y1="153.69" x2="36.94" y2="12.27"/>
  <line class="cls-1" x1="178.36" y1="118.4" x2="72.29" y2="12.33"/>
  <line class="cls-1" x1="284.39" y1="188.98" x2="213.73" y2="118.33"/>
  <line class="cls-1" x1="284.78" y1="224.41" x2="214.07" y2="153.7"/>
  <line class="cls-1" x1="249.24" y1="224.58" x2="213.89" y2="189.24"/>
  <line class="cls-1" x1="178.33" y1="82.94" x2="107.65" y2="12.27"/>
  <line class="cls-1" x1="355.33" y1="401.43" x2="36.91" y2="83.01"/>
  <line class="cls-1" x1="178.13" y1="259.35" x2="37.03" y2="118.25"/>
  <line class="cls-1" x1="319.29" y1="400.78" x2="213.67" y2="295.16"/>
  <line class="cls-1" x1="319.61" y1="437.08" x2="213.18" y2="330.65"/>
  <line class="cls-1" x1="284.38" y1="436.59" x2="213.67" y2="365.88"/>
  <line class="cls-1" x1="284.6" y1="472.08" x2="213.71" y2="401.19"/>
  <line class="cls-1" x1="178.31" y1="295.09" x2="36.92" y2="153.71"/>
  <line class="cls-1" x1="178.39" y1="330.45" x2="37.07" y2="189.13"/>
  <line class="cls-1" x1="178.56" y1="365.68" x2="37.11" y2="224.23"/>
  <line class="cls-1" x1="178.54" y1="401.01" x2="37.11" y2="259.59"/>
  <line class="cls-1" x1="214.23" y1="472.06" x2="37.11" y2="294.94"/>
  <line class="cls-1" x1="178.36" y1="471.9" x2="36.87" y2="330.4"/>
  <line class="cls-1" x1="143" y1="471.91" x2="36.91" y2="365.82"/>
  <line class="cls-1" x1="107.75" y1="471.94" x2="36.97" y2="401.16"/>
  <line class="cls-1" x1="72.24" y1="471.91" x2="36.87" y2="436.53"/>
  <line class="cls-1" x1="249.02" y1="471.96" x2="213.76" y2="436.69"/>
  <line class="cls-1" x1="213.89" y1="189.24" x2="319.8" y2="83.33"/>
  <line class="cls-1" x1="36.91" y1="365.81" x2="178.31" y2="224.41"/>
  <line class="cls-1" x1="36.91" y1="401.17" x2="354.99" y2="83.09"/>
  <line class="cls-1" x1="214.02" y1="259.79" x2="355.3" y2="118.51"/>
  <line class="cls-1" x1="36.89" y1="436.51" x2="178.31" y2="295.09"/>
  <line class="cls-1" x1="72.28" y1="471.95" x2="178.38" y2="365.86"/>
  <line class="cls-1" x1="107.82" y1="471.88" x2="178.61" y2="401.09"/>
  <line class="cls-1" x1="143" y1="471.91" x2="178.16" y2="436.75"/>
  <line class="cls-1" x1="36.89" y1="471.99" x2="178.41" y2="330.48"/>
  <line class="cls-1" x1="178.4" y1="471.94" x2="319.82" y2="330.52"/>
  <line class="cls-1" x1="249.07" y1="471.9" x2="355.09" y2="365.88"/>
  <line class="cls-1" x1="213.18" y1="330.65" x2="284.51" y2="259.32"/>
  <line class="cls-1" x1="213.67" y1="365.88" x2="283.21" y2="296.34"/>
  <line class="cls-1" x1="213.81" y1="295.03" x2="247.85" y2="260.98"/>
  <line class="cls-1" x1="213.7" y1="401.18" x2="320.09" y2="294.79"/>
  <line class="cls-1" x1="214.34" y1="471.83" x2="355.19" y2="330.98"/>
  <line class="cls-1" x1="214.19" y1="153.58" x2="320.14" y2="47.63"/>
  <line class="cls-1" x1="36.95" y1="330.33" x2="178.22" y2="189.06"/>
  <line class="cls-1" x1="213.73" y1="118.32" x2="284.28" y2="47.77"/>
  <line class="cls-1" x1="37.15" y1="294.89" x2="178.36" y2="153.68"/>
  <line class="cls-1" x1="213.72" y1="83" x2="284.61" y2="12.11"/>
  <line class="cls-1" x1="37.11" y1="259.59" x2="178.33" y2="118.37"/>
  <line class="cls-1" x1="214.07" y1="47.2" x2="249.03" y2="12.24"/>
  <line class="cls-1" x1="37.07" y1="224.19" x2="178.32" y2="82.95"/>
  <line class="cls-1" x1="36.98" y1="189.04" x2="213.67" y2="12.36"/>
  <line class="cls-1" x1="36.89" y1="153.67" x2="178.36" y2="12.19"/>
  <line class="cls-1" x1="37.09" y1="118.19" x2="142.97" y2="12.31"/>
  <line class="cls-1" x1="36.94" y1="82.98" x2="107.65" y2="12.27"/>
  <line class="cls-1" x1="36.93" y1="47.63" x2="72.26" y2="12.31"/>
</svg>