<?xml version="1.0" encoding="UTF-8"?>
<svg id="_1" data-name="1" xmlns="http://www.w3.org/2000/svg" viewBox="0 0 372.77 479.29">
  <defs>
    <style>
      .cls-1 {
        fill: none;
        stroke: #1d1d1b;
        stroke-linecap: round;
        stroke-miterlimit: 10;
        stroke-width: 10px;
      }
    </style>
  </defs>
  <line class="cls-1" x1="357.42" y1="115.51" x2="251.37" y2="9.46"/>
  <line class="cls-1" x1="357.42" y1="150.87" x2="216.05" y2="9.5"/>
  <line class="cls-1" x1="357.42" y1="186.23" x2="180.64" y2="9.45"/>
  <line class="cls-1" x1="358.09" y1="221.93" x2="216.16" y2="80"/>
  <line class="cls-1" x1="358.19" y1="257.18" x2="216.63" y2="115.63"/>
  <line class="cls-1" x1="357.68" y1="292.18" x2="216.29" y2="150.79"/>
  <line class="cls-1" x1="357.53" y1="327.54" x2="216.29" y2="186.3"/>
  <line class="cls-1" x1="180.55" y1="44.89" x2="145.2" y2="9.53"/>
  <line class="cls-1" x1="180.54" y1="186.18" x2="39.2" y2="44.83"/>
  <line class="cls-1" x1="357.42" y1="363.01" x2="216.18" y2="221.77"/>
  <line class="cls-1" x1="357.38" y1="398.4" x2="215.96" y2="256.98"/>
  <line class="cls-1" x1="180.82" y1="150.69" x2="39.52" y2="9.15"/>
  <line class="cls-1" x1="180.89" y1="115.44" x2="74.92" y2="9.47"/>
  <line class="cls-1" x1="180.52" y1="80.04" x2="110.26" y2="9.78"/>
  <line class="cls-1" x1="180.81" y1="221.58" x2="39.49" y2="80.26"/>
  <line class="cls-1" x1="180.71" y1="256.84" x2="39.19" y2="115.32"/>
  <line class="cls-1" x1="322.06" y1="398.36" x2="216.18" y2="292.48"/>
  <line class="cls-1" x1="322.6" y1="434.19" x2="216.21" y2="327.8"/>
  <line class="cls-1" x1="286.71" y1="433.72" x2="234.34" y2="381.35"/>
  <line class="cls-1" x1="287.21" y1="469.58" x2="216.5" y2="398.87"/>
  <line class="cls-1" x1="180.72" y1="292.21" x2="39.58" y2="151.06"/>
  <line class="cls-1" x1="181.04" y1="327.52" x2="39.73" y2="186.22"/>
  <line class="cls-1" x1="180.93" y1="362.89" x2="39.42" y2="221.38"/>
  <line class="cls-1" x1="180.64" y1="398.36" x2="39.5" y2="257.22"/>
  <line class="cls-1" x1="216.08" y1="468.99" x2="39.54" y2="292.44"/>
  <line class="cls-1" x1="180.72" y1="468.99" x2="39.39" y2="327.65"/>
  <line class="cls-1" x1="145.37" y1="468.99" x2="39.32" y2="362.94"/>
  <line class="cls-1" x1="110.13" y1="468.87" x2="39.51" y2="398.24"/>
  <line class="cls-1" x1="74.82" y1="469" x2="39.36" y2="433.54"/>
  <line class="cls-1" x1="251.35" y1="469.08" x2="216.55" y2="434.27"/>
  <line class="cls-1" x1="216.16" y1="186.07" x2="321.99" y2="80.23"/>
  <line class="cls-1" x1="39.39" y1="363.01" x2="180.64" y2="221.76"/>
  <line class="cls-1" x1="39.39" y1="398.36" x2="180.81" y2="256.94"/>
  <line class="cls-1" x1="215.99" y1="221.58" x2="357.42" y2="80.16"/>
  <line class="cls-1" x1="216.16" y1="256.78" x2="357.16" y2="115.78"/>
  <line class="cls-1" x1="216.16" y1="292.13" x2="357.42" y2="150.87"/>
  <line class="cls-1" x1="39.29" y1="433.62" x2="180.71" y2="292.19"/>
  <line class="cls-1" x1="74.82" y1="469" x2="180.93" y2="362.89"/>
  <line class="cls-1" x1="110.13" y1="468.87" x2="180.64" y2="398.36"/>
  <line class="cls-1" x1="145.45" y1="468.91" x2="180.72" y2="433.63"/>
  <line class="cls-1" x1="39.44" y1="469.13" x2="181.06" y2="327.51"/>
  <line class="cls-1" x1="180.8" y1="469.06" x2="357.49" y2="292.37"/>
  <line class="cls-1" x1="216.5" y1="398.87" x2="358.19" y2="257.18"/>
  <line class="cls-1" x1="216.82" y1="363.19" x2="357.7" y2="222.32"/>
  <line class="cls-1" x1="216.21" y1="327.8" x2="357.59" y2="186.43"/>
  <line class="cls-1" x1="251.49" y1="468.94" x2="357.42" y2="363.01"/>
  <line class="cls-1" x1="216.08" y1="468.99" x2="357.42" y2="327.65"/>
  <line class="cls-1" x1="216.16" y1="150.71" x2="322.22" y2="44.64"/>
  <line class="cls-1" x1="39.23" y1="327.49" x2="180.54" y2="186.18"/>
  <line class="cls-1" x1="216.75" y1="115.5" x2="286.73" y2="45.52"/>
  <line class="cls-1" x1="39.3" y1="292.21" x2="180.82" y2="150.69"/>
  <line class="cls-1" x1="216.26" y1="79.89" x2="286.71" y2="9.45"/>
  <line class="cls-1" x1="39.3" y1="257.03" x2="180.72" y2="115.6"/>
  <line class="cls-1" x1="216.16" y1="44.64" x2="251.35" y2="9.45"/>
  <line class="cls-1" x1="39.3" y1="221.5" x2="180.64" y2="80.16"/>
  <line class="cls-1" x1="39.54" y1="186.02" x2="216.05" y2="9.5"/>
  <line class="cls-1" x1="39.3" y1="150.78" x2="180.64" y2="9.45"/>
  <line class="cls-1" x1="39.19" y1="115.32" x2="145.09" y2="9.43"/>
  <line class="cls-1" x1="39.49" y1="80.26" x2="110.11" y2="9.63"/>
  <line class="cls-1" x1="39.2" y1="44.83" x2="74.74" y2="9.29"/>
</svg>