<?xml version="1.0" encoding="UTF-8"?>
<svg id="_1" data-name="1" xmlns="http://www.w3.org/2000/svg" viewBox="0 0 372.77 479.29">
  <defs>
    <style>
      .cls-1 {
        fill: none;
        stroke: #1d1d1b;
        stroke-linecap: round;
        stroke-miterlimit: 10;
        stroke-width: 10px;
      }
    </style>
  </defs>
  <line class="cls-1" x1="346.54" y1="121.28" x2="240.48" y2="15.23"/>
  <line class="cls-1" x1="346.54" y1="85.92" x2="275.82" y2="15.21"/>
  <line class="cls-1" x1="346.54" y1="50.57" x2="311.22" y2="15.25"/>
  <line class="cls-1" x1="346.54" y1="156.64" x2="205.17" y2="15.27"/>
  <line class="cls-1" x1="346.54" y1="191.99" x2="169.76" y2="15.21"/>
  <line class="cls-1" x1="169.67" y1="50.65" x2="134.31" y2="15.3"/>
  <line class="cls-1" x1="169.66" y1="191.94" x2="63.75" y2="86.03"/>
  <line class="cls-1" x1="346.54" y1="368.77" x2="240.9" y2="263.14"/>
  <line class="cls-1" x1="346.5" y1="404.16" x2="205.51" y2="263.18"/>
  <line class="cls-1" x1="169.94" y1="156.45" x2="64.46" y2="50.97"/>
  <line class="cls-1" x1="170.01" y1="121.2" x2="99.5" y2="50.69"/>
  <line class="cls-1" x1="169.63" y1="85.8" x2="99.38" y2="15.55"/>
  <line class="cls-1" x1="169.93" y1="227.35" x2="29.1" y2="86.52"/>
  <line class="cls-1" x1="169.82" y1="262.6" x2="28.31" y2="121.09"/>
  <line class="cls-1" x1="311.18" y1="404.13" x2="204.91" y2="297.86"/>
  <line class="cls-1" x1="346.54" y1="333.42" x2="276.26" y2="263.14"/>
  <line class="cls-1" x1="346.78" y1="297.97" x2="312.18" y2="263.37"/>
  <line class="cls-1" x1="311.65" y1="439.89" x2="205.76" y2="334"/>
  <line class="cls-1" x1="275.82" y1="439.48" x2="206.18" y2="369.84"/>
  <line class="cls-1" x1="275.82" y1="474.84" x2="205.11" y2="404.13"/>
  <line class="cls-1" x1="169.84" y1="297.97" x2="28.69" y2="156.82"/>
  <line class="cls-1" x1="170.16" y1="333.29" x2="28.85" y2="191.98"/>
  <line class="cls-1" x1="170.05" y1="368.65" x2="28.53" y2="227.14"/>
  <line class="cls-1" x1="169.76" y1="404.13" x2="28.62" y2="262.99"/>
  <line class="cls-1" x1="205.2" y1="474.75" x2="28.65" y2="298.21"/>
  <line class="cls-1" x1="169.84" y1="474.75" x2="28.5" y2="333.42"/>
  <line class="cls-1" x1="134.49" y1="474.75" x2="28.43" y2="368.7"/>
  <line class="cls-1" x1="99.25" y1="474.63" x2="28.63" y2="404"/>
  <line class="cls-1" x1="63.93" y1="474.77" x2="28.48" y2="439.31"/>
  <line class="cls-1" x1="240.47" y1="474.84" x2="205.67" y2="440.04"/>
  <line class="cls-1" x1="276.46" y1="120.64" x2="346.28" y2="50.82"/>
  <line class="cls-1" x1="28.5" y1="368.77" x2="169.76" y2="227.52"/>
  <line class="cls-1" x1="28.5" y1="404.13" x2="169.93" y2="262.7"/>
  <line class="cls-1" x1="274.57" y1="157.89" x2="346.54" y2="85.92"/>
  <line class="cls-1" x1="312.06" y1="155.75" x2="346.27" y2="121.54"/>
  <line class="cls-1" x1="311.18" y1="191.99" x2="346.54" y2="156.64"/>
  <line class="cls-1" x1="28.4" y1="439.38" x2="169.83" y2="297.96"/>
  <line class="cls-1" x1="63.93" y1="474.77" x2="170.05" y2="368.65"/>
  <line class="cls-1" x1="99.25" y1="474.63" x2="169.76" y2="404.13"/>
  <line class="cls-1" x1="134.57" y1="474.67" x2="169.84" y2="439.4"/>
  <line class="cls-1" x1="28.55" y1="474.89" x2="170.17" y2="333.27"/>
  <line class="cls-1" x1="169.92" y1="474.83" x2="346.61" y2="298.14"/>
  <line class="cls-1" x1="240.6" y1="474.7" x2="346.54" y2="368.77"/>
  <line class="cls-1" x1="205.73" y1="369.39" x2="311.11" y2="264"/>
  <line class="cls-1" x1="206.14" y1="333.61" x2="275.72" y2="264.03"/>
  <line class="cls-1" x1="205.2" y1="297.97" x2="240.55" y2="262.62"/>
  <line class="cls-1" x1="205.2" y1="474.75" x2="346.54" y2="333.42"/>
  <line class="cls-1" x1="206.88" y1="403.58" x2="348.49" y2="261.98"/>
  <line class="cls-1" x1="241.07" y1="120.68" x2="346.54" y2="15.21"/>
  <line class="cls-1" x1="28.35" y1="333.26" x2="169.66" y2="191.94"/>
  <line class="cls-1" x1="242.1" y1="84.29" x2="311.18" y2="15.21"/>
  <line class="cls-1" x1="28.42" y1="297.97" x2="169.94" y2="156.45"/>
  <line class="cls-1" x1="205.38" y1="85.66" x2="275.82" y2="15.21"/>
  <line class="cls-1" x1="28.42" y1="262.79" x2="169.84" y2="121.37"/>
  <line class="cls-1" x1="206.1" y1="49.58" x2="240.47" y2="15.21"/>
  <line class="cls-1" x1="28.42" y1="227.26" x2="169.76" y2="85.92"/>
  <line class="cls-1" x1="28.65" y1="191.78" x2="205.17" y2="15.27"/>
  <line class="cls-1" x1="28.42" y1="156.55" x2="169.76" y2="15.21"/>
  <line class="cls-1" x1="28.31" y1="121.09" x2="134.21" y2="15.19"/>
</svg>