<?xml version="1.0" encoding="UTF-8"?>
<svg id="_1" data-name="1" xmlns="http://www.w3.org/2000/svg" viewBox="0 0 372.77 479.29">
  <defs>
    <style>
      .cls-1 {
        fill: none;
        stroke: #1d1d1b;
        stroke-linecap: round;
        stroke-miterlimit: 10;
        stroke-width: 10px;
      }
    </style>
  </defs>
  <g>
    <line class="cls-1" x1="166.08" y1="46.17" x2="130.8" y2="10.89"/>
    <line class="cls-1" x1="166.09" y1="187.6" x2="24.92" y2="46.44"/>
    <line class="cls-1" x1="166.17" y1="152.31" x2="24.74" y2="10.88"/>
    <line class="cls-1" x1="166.16" y1="117.02" x2="60.09" y2="10.95"/>
    <line class="cls-1" x1="166.13" y1="81.55" x2="95.46" y2="10.88"/>
    <line class="cls-1" x1="183.79" y1="240.71" x2="24.71" y2="81.63"/>
    <line class="cls-1" x1="165.93" y1="257.97" x2="24.83" y2="116.86"/>
    <line class="cls-1" x1="166.11" y1="293.71" x2="24.73" y2="152.32"/>
    <line class="cls-1" x1="166.19" y1="329.06" x2="24.88" y2="187.75"/>
    <line class="cls-1" x1="166.36" y1="364.29" x2="24.92" y2="222.85"/>
    <line class="cls-1" x1="166.34" y1="399.63" x2="24.92" y2="258.2"/>
    <line class="cls-1" x1="166.34" y1="434.98" x2="24.92" y2="293.56"/>
    <line class="cls-1" x1="166.16" y1="470.51" x2="24.67" y2="329.02"/>
    <line class="cls-1" x1="130.8" y1="470.52" x2="24.71" y2="364.43"/>
    <line class="cls-1" x1="95.56" y1="470.56" x2="24.77" y2="399.77"/>
    <line class="cls-1" x1="60.05" y1="470.53" x2="24.67" y2="435.15"/>
    <line class="cls-1" x1="24.71" y1="364.43" x2="166.11" y2="223.03"/>
    <line class="cls-1" x1="24.71" y1="399.78" x2="183.25" y2="241.25"/>
    <line class="cls-1" x1="24.69" y1="435.12" x2="166.11" y2="293.71"/>
    <line class="cls-1" x1="60.09" y1="470.57" x2="166.18" y2="364.47"/>
    <line class="cls-1" x1="95.62" y1="470.49" x2="166.41" y2="399.7"/>
    <line class="cls-1" x1="130.8" y1="470.52" x2="165.96" y2="435.36"/>
    <line class="cls-1" x1="24.7" y1="470.61" x2="166.22" y2="329.09"/>
    <line class="cls-1" x1="24.75" y1="328.94" x2="166.02" y2="187.67"/>
    <line class="cls-1" x1="24.95" y1="293.51" x2="166.16" y2="152.3"/>
    <line class="cls-1" x1="24.92" y1="258.2" x2="166.13" y2="116.99"/>
    <line class="cls-1" x1="24.88" y1="222.81" x2="166.12" y2="81.56"/>
    <line class="cls-1" x1="24.79" y1="187.66" x2="166.18" y2="46.27"/>
    <line class="cls-1" x1="24.69" y1="152.28" x2="166.17" y2="10.8"/>
    <line class="cls-1" x1="24.89" y1="116.8" x2="130.77" y2="10.92"/>
    <line class="cls-1" x1="24.74" y1="81.59" x2="95.46" y2="10.88"/>
    <line class="cls-1" x1="24.73" y1="46.25" x2="60.06" y2="10.92"/>
  </g>
  <g>
    <line class="cls-1" x1="200.05" y1="47.03" x2="235.33" y2="11.75"/>
    <line class="cls-1" x1="200.05" y1="188.46" x2="341.21" y2="47.3"/>
    <line class="cls-1" x1="199.96" y1="153.17" x2="341.39" y2="11.74"/>
    <line class="cls-1" x1="199.97" y1="117.88" x2="306.04" y2="11.81"/>
    <line class="cls-1" x1="200" y1="82.42" x2="270.68" y2="11.74"/>
    <line class="cls-1" x1="182.34" y1="241.57" x2="341.42" y2="82.49"/>
    <line class="cls-1" x1="200.2" y1="258.83" x2="341.3" y2="117.72"/>
    <line class="cls-1" x1="200.02" y1="294.57" x2="341.41" y2="153.18"/>
    <line class="cls-1" x1="199.94" y1="329.92" x2="341.26" y2="188.61"/>
    <line class="cls-1" x1="199.77" y1="365.15" x2="341.22" y2="223.71"/>
    <line class="cls-1" x1="199.79" y1="400.49" x2="341.22" y2="259.06"/>
    <line class="cls-1" x1="199.79" y1="435.84" x2="341.22" y2="294.42"/>
    <line class="cls-1" x1="199.97" y1="471.37" x2="341.46" y2="329.88"/>
    <line class="cls-1" x1="235.33" y1="471.38" x2="341.42" y2="365.29"/>
    <line class="cls-1" x1="270.58" y1="471.42" x2="341.36" y2="400.63"/>
    <line class="cls-1" x1="306.09" y1="471.39" x2="341.46" y2="436.01"/>
    <line class="cls-1" x1="341.42" y1="365.29" x2="200.02" y2="223.89"/>
    <line class="cls-1" x1="341.42" y1="400.65" x2="182.88" y2="242.11"/>
    <line class="cls-1" x1="341.44" y1="435.98" x2="200.02" y2="294.57"/>
    <line class="cls-1" x1="306.05" y1="471.43" x2="199.95" y2="365.33"/>
    <line class="cls-1" x1="270.51" y1="471.35" x2="199.72" y2="400.56"/>
    <line class="cls-1" x1="235.33" y1="471.38" x2="200.17" y2="436.22"/>
    <line class="cls-1" x1="341.44" y1="471.47" x2="199.92" y2="329.95"/>
    <line class="cls-1" x1="341.38" y1="329.8" x2="200.11" y2="188.53"/>
    <line class="cls-1" x1="341.18" y1="294.37" x2="199.97" y2="153.16"/>
    <line class="cls-1" x1="341.22" y1="259.06" x2="200" y2="117.85"/>
    <line class="cls-1" x1="341.26" y1="223.67" x2="200.01" y2="82.42"/>
    <line class="cls-1" x1="341.35" y1="188.52" x2="199.95" y2="47.13"/>
    <line class="cls-1" x1="341.44" y1="153.14" x2="199.97" y2="11.67"/>
    <line class="cls-1" x1="341.24" y1="117.67" x2="235.36" y2="11.78"/>
    <line class="cls-1" x1="341.39" y1="82.45" x2="270.68" y2="11.74"/>
    <line class="cls-1" x1="341.4" y1="47.11" x2="306.07" y2="11.78"/>
  </g>
</svg>