<?xml version="1.0" encoding="UTF-8"?>
<svg id="_1" data-name="1" xmlns="http://www.w3.org/2000/svg" viewBox="0 0 372.77 479.29">
  <defs>
    <style>
      .cls-1 {
        fill: none;
        stroke: #1d1d1b;
        stroke-linecap: round;
        stroke-miterlimit: 10;
        stroke-width: 10px;
      }
    </style>
  </defs>
  <line class="cls-1" x1="27.31" y1="49.22" x2="62.58" y2="13.94"/>
  <line class="cls-1" x1="27.3" y1="190.65" x2="98.42" y2="119.53"/>
  <line class="cls-1" x1="27.22" y1="155.35" x2="98.41" y2="84.17"/>
  <line class="cls-1" x1="27.23" y1="120.06" x2="97.97" y2="49.32"/>
  <line class="cls-1" x1="27.26" y1="84.6" x2="62.37" y2="49.49"/>
  <line class="cls-1" x1="27.28" y1="226.07" x2="133.8" y2="119.55"/>
  <line class="cls-1" x1="27.45" y1="261.01" x2="133.09" y2="155.37"/>
  <line class="cls-1" x1="27.28" y1="296.75" x2="169.31" y2="154.72"/>
  <line class="cls-1" x1="27.2" y1="332.11" x2="168.6" y2="190.71"/>
  <line class="cls-1" x1="27.03" y1="367.34" x2="344.6" y2="49.77"/>
  <line class="cls-1" x1="27.05" y1="438.03" x2="343.96" y2="121.12"/>
  <line class="cls-1" x1="27.22" y1="473.56" x2="168.72" y2="332.07"/>
  <line class="cls-1" x1="62.59" y1="473.57" x2="168.68" y2="367.48"/>
  <line class="cls-1" x1="97.83" y1="473.6" x2="168.62" y2="402.82"/>
  <line class="cls-1" x1="133.34" y1="473.57" x2="168.72" y2="438.19"/>
  <line class="cls-1" x1="168.68" y1="367.48" x2="27.28" y2="226.07"/>
  <line class="cls-1" x1="168.68" y1="402.83" x2="27.16" y2="261.31"/>
  <line class="cls-1" x1="168.69" y1="438.17" x2="27.28" y2="296.75"/>
  <line class="cls-1" x1="133.3" y1="473.61" x2="27.21" y2="367.52"/>
  <line class="cls-1" x1="97.77" y1="473.54" x2="26.97" y2="402.75"/>
  <line class="cls-1" x1="98.37" y1="83.13" x2="29.11" y2="13.87"/>
  <line class="cls-1" x1="62.58" y1="473.57" x2="27.43" y2="438.41"/>
  <line class="cls-1" x1="168.69" y1="473.66" x2="27.17" y2="332.14"/>
  <line class="cls-1" x1="168.64" y1="331.99" x2="27.37" y2="190.72"/>
  <line class="cls-1" x1="168.44" y1="296.55" x2="27.23" y2="155.34"/>
  <line class="cls-1" x1="345.01" y1="437.78" x2="27.26" y2="120.03"/>
  <line class="cls-1" x1="345.05" y1="402.4" x2="27.27" y2="84.61"/>
  <line class="cls-1" x1="344.96" y1="367.06" x2="27.21" y2="49.31"/>
  <line class="cls-1" x1="344.48" y1="438.31" x2="309.2" y2="473.59"/>
  <line class="cls-1" x1="345.16" y1="296.2" x2="276.61" y2="364.75"/>
  <line class="cls-1" x1="344.57" y1="332.17" x2="273.38" y2="403.36"/>
  <line class="cls-1" x1="344.56" y1="367.46" x2="273.82" y2="438.2"/>
  <line class="cls-1" x1="344.53" y1="402.92" x2="309.41" y2="438.03"/>
  <line class="cls-1" x1="344.51" y1="261.45" x2="237.99" y2="367.97"/>
  <line class="cls-1" x1="344.33" y1="226.51" x2="238.69" y2="332.15"/>
  <line class="cls-1" x1="344.51" y1="190.77" x2="202.47" y2="332.8"/>
  <line class="cls-1" x1="344.59" y1="155.41" x2="203.18" y2="296.82"/>
  <line class="cls-1" x1="344.74" y1="84.85" x2="27.62" y2="401.96"/>
  <line class="cls-1" x1="344.56" y1="13.96" x2="203.07" y2="155.46"/>
  <line class="cls-1" x1="309.2" y1="13.95" x2="203.11" y2="120.05"/>
  <line class="cls-1" x1="273.95" y1="13.92" x2="203.17" y2="84.71"/>
  <line class="cls-1" x1="238.44" y1="13.95" x2="203.07" y2="49.33"/>
  <line class="cls-1" x1="203.78" y1="118.83" x2="345.18" y2="260.23"/>
  <line class="cls-1" x1="203.72" y1="84.08" x2="345.24" y2="225.6"/>
  <line class="cls-1" x1="204.38" y1="48.07" x2="345.79" y2="189.49"/>
  <line class="cls-1" x1="239.32" y1="12.91" x2="345.41" y2="119"/>
  <line class="cls-1" x1="275.07" y1="13.92" x2="345.37" y2="84.22"/>
  <line class="cls-1" x1="275.91" y1="403.02" x2="345.18" y2="472.28"/>
  <line class="cls-1" x1="310.35" y1="13.02" x2="345.51" y2="48.18"/>
  <line class="cls-1" x1="204.32" y1="13.93" x2="345.2" y2="154.81"/>
  <line class="cls-1" x1="203.15" y1="153.65" x2="345" y2="295.5"/>
  <line class="cls-1" x1="205.42" y1="190.97" x2="345.59" y2="331.14"/>
</svg>