<?xml version="1.0" encoding="UTF-8"?>
<svg id="_1" data-name="1" xmlns="http://www.w3.org/2000/svg" viewBox="0 0 372.77 479.29">
  <defs>
    <style>
      .cls-1 {
        fill: none;
        stroke: #1d1d1b;
        stroke-linecap: round;
        stroke-miterlimit: 10;
        stroke-width: 10px;
      }
    </style>
  </defs>
  <line class="cls-1" x1="150.6" y1="434.15" x2="115.24" y2="469.51"/>
  <line class="cls-1" x1="327.2" y1="116.25" x2="9.74" y2="433.72"/>
  <line class="cls-1" x1="150.87" y1="328.35" x2="9.95" y2="469.28"/>
  <line class="cls-1" x1="150.94" y1="363.6" x2="45.28" y2="469.26"/>
  <line class="cls-1" x1="150.56" y1="399" x2="80.31" y2="469.26"/>
  <line class="cls-1" x1="328.53" y1="79.78" x2="10.04" y2="398.28"/>
  <line class="cls-1" x1="150.76" y1="222.2" x2="9.24" y2="363.72"/>
  <line class="cls-1" x1="292.11" y1="80.68" x2="185.84" y2="186.95"/>
  <line class="cls-1" x1="327.47" y1="151.39" x2="186.13" y2="292.73"/>
  <line class="cls-1" x1="292.58" y1="44.92" x2="186.69" y2="150.81"/>
  <line class="cls-1" x1="256.75" y1="45.32" x2="187.11" y2="114.96"/>
  <line class="cls-1" x1="256.75" y1="9.96" x2="186.04" y2="80.68"/>
  <line class="cls-1" x1="150.77" y1="186.83" x2="9.63" y2="327.98"/>
  <line class="cls-1" x1="151.09" y1="151.52" x2="9.78" y2="292.82"/>
  <line class="cls-1" x1="150.98" y1="116.15" x2="9.47" y2="257.66"/>
  <line class="cls-1" x1="150.69" y1="80.68" x2="9.55" y2="221.82"/>
  <line class="cls-1" x1="186.13" y1="10.05" x2="9.58" y2="186.6"/>
  <line class="cls-1" x1="150.77" y1="10.05" x2="9.44" y2="151.39"/>
  <line class="cls-1" x1="115.42" y1="10.05" x2="9.37" y2="116.1"/>
  <line class="cls-1" x1="80.18" y1="10.17" x2="9.56" y2="80.8"/>
  <line class="cls-1" x1="44.87" y1="10.04" x2="9.41" y2="45.5"/>
  <line class="cls-1" x1="221.4" y1="9.96" x2="186.6" y2="44.77"/>
  <line class="cls-1" x1="9.44" y1="116.03" x2="363.52" y2="470.12"/>
  <line class="cls-1" x1="9.44" y1="80.68" x2="222.25" y2="293.49"/>
  <line class="cls-1" x1="9.33" y1="45.42" x2="150.76" y2="186.85"/>
  <line class="cls-1" x1="44.87" y1="10.04" x2="150.98" y2="116.15"/>
  <line class="cls-1" x1="80.18" y1="10.17" x2="150.69" y2="80.68"/>
  <line class="cls-1" x1="115.5" y1="10.13" x2="150.77" y2="45.41"/>
  <line class="cls-1" x1="9.49" y1="9.91" x2="151.11" y2="151.53"/>
  <line class="cls-1" x1="150.85" y1="9.98" x2="327.54" y2="186.67"/>
  <line class="cls-1" x1="221.53" y1="10.1" x2="327.47" y2="116.03"/>
  <line class="cls-1" x1="186.66" y1="115.42" x2="292.04" y2="220.8"/>
  <line class="cls-1" x1="187.07" y1="151.19" x2="256.65" y2="220.77"/>
  <line class="cls-1" x1="187.77" y1="221.51" x2="222.56" y2="256.3"/>
  <line class="cls-1" x1="186.13" y1="186.83" x2="257.72" y2="258.42"/>
  <line class="cls-1" x1="186.13" y1="10.05" x2="327.47" y2="151.39"/>
  <line class="cls-1" x1="187.82" y1="81.22" x2="292.73" y2="186.13"/>
  <line class="cls-1" x1="9.28" y1="151.55" x2="150.59" y2="292.86"/>
  <line class="cls-1" x1="9.35" y1="186.83" x2="150.87" y2="328.35"/>
  <line class="cls-1" x1="9.35" y1="222.01" x2="150.77" y2="363.44"/>
  <line class="cls-1" x1="9.35" y1="257.54" x2="150.69" y2="398.88"/>
  <line class="cls-1" x1="9.58" y1="293.02" x2="150.66" y2="434.09"/>
  <line class="cls-1" x1="9.35" y1="328.26" x2="150.69" y2="469.59"/>
  <line class="cls-1" x1="9.24" y1="363.72" x2="115.14" y2="469.61"/>
  <line class="cls-1" x1="9.85" y1="398.47" x2="80.47" y2="469.09"/>
  <line class="cls-1" x1="9.74" y1="433.72" x2="45.28" y2="469.26"/>
  <line class="cls-1" x1="292.63" y1="470.48" x2="327.91" y2="435.2"/>
  <line class="cls-1" x1="257.24" y1="470.44" x2="327.8" y2="399.88"/>
  <line class="cls-1" x1="221.92" y1="470.48" x2="292.09" y2="400.31"/>
  <line class="cls-1" x1="327.99" y1="470.48" x2="363.35" y2="435.12"/>
  <line class="cls-1" x1="186.6" y1="470.51" x2="292.67" y2="364.44"/>
  <line class="cls-1" x1="186.57" y1="435.12" x2="255.37" y2="366.32"/>
  <line class="cls-1" x1="186.57" y1="399.77" x2="257.28" y2="329.05"/>
  <line class="cls-1" x1="186.57" y1="364.41" x2="221.37" y2="329.61"/>
  <line class="cls-1" x1="186.57" y1="329.17" x2="221.37" y2="294.37"/>
  <line class="cls-1" x1="186.7" y1="364.55" x2="292.63" y2="470.48"/>
  <line class="cls-1" x1="186.57" y1="399.77" x2="257.24" y2="470.44"/>
  <line class="cls-1" x1="186.57" y1="435.12" x2="221.92" y2="470.48"/>
  <line class="cls-1" x1="186.65" y1="329.14" x2="327.99" y2="470.48"/>
</svg>