<?xml version="1.0" encoding="UTF-8"?>
<svg id="_1" data-name="1" xmlns="http://www.w3.org/2000/svg" viewBox="0 0 372.77 479.29">
  <defs>
    <style>
      .cls-1 {
        fill: none;
        stroke: #1d1d1b;
        stroke-linecap: round;
        stroke-miterlimit: 10;
        stroke-width: 10px;
      }
    </style>
  </defs>
  <line class="cls-1" x1="26.71" y1="297.3" x2="201.83" y2="472.43"/>
  <line class="cls-1" x1="24.69" y1="154.24" x2="307.09" y2="436.64"/>
  <line class="cls-1" x1="25.33" y1="84.17" x2="342.44" y2="401.28"/>
  <line class="cls-1" x1="60.6" y1="84.44" x2="343.51" y2="367.35"/>
  <line class="cls-1" x1="59.69" y1="48.53" x2="343.17" y2="332.01"/>
  <line class="cls-1" x1="24.5" y1="119.09" x2="307.72" y2="402.31"/>
  <line class="cls-1" x1="130.94" y1="472.78" x2="166.22" y2="437.5"/>
  <line class="cls-1" x1="202.39" y1="472.78" x2="343.09" y2="332.08"/>
  <line class="cls-1" x1="95.55" y1="472.74" x2="166.11" y2="402.18"/>
  <line class="cls-1" x1="238.06" y1="472.74" x2="343.66" y2="367.14"/>
  <line class="cls-1" x1="202.19" y1="401.53" x2="307.44" y2="296.28"/>
  <line class="cls-1" x1="200.81" y1="367.4" x2="306.42" y2="261.8"/>
  <line class="cls-1" x1="166.54" y1="330.97" x2="272.14" y2="225.37"/>
  <line class="cls-1" x1="131.44" y1="295.43" x2="236.83" y2="190.05"/>
  <line class="cls-1" x1="95.94" y1="259.78" x2="201.54" y2="154.17"/>
  <line class="cls-1" x1="95.63" y1="225.18" x2="165.89" y2="154.91"/>
  <line class="cls-1" x1="131.47" y1="260.11" x2="201.28" y2="190.3"/>
  <line class="cls-1" x1="166.75" y1="295.39" x2="236.56" y2="225.58"/>
  <line class="cls-1" x1="202.03" y1="330.67" x2="271.84" y2="260.86"/>
  <line class="cls-1" x1="62.16" y1="222.84" x2="165.94" y2="119.07"/>
  <line class="cls-1" x1="60.23" y1="472.78" x2="130.39" y2="402.61"/>
  <line class="cls-1" x1="166.3" y1="472.78" x2="343.15" y2="295.92"/>
  <line class="cls-1" x1="24.9" y1="472.82" x2="130.97" y2="366.75"/>
  <line class="cls-1" x1="24.87" y1="437.43" x2="93.67" y2="368.63"/>
  <line class="cls-1" x1="24.87" y1="402.07" x2="95.58" y2="331.36"/>
  <line class="cls-1" x1="24.87" y1="366.71" x2="59.67" y2="331.91"/>
  <line class="cls-1" x1="24.87" y1="331.48" x2="59.67" y2="296.68"/>
  <line class="cls-1" x1="25.01" y1="366.85" x2="130.94" y2="472.78"/>
  <line class="cls-1" x1="24.87" y1="402.07" x2="95.55" y2="472.74"/>
  <line class="cls-1" x1="202.43" y1="402.07" x2="273.1" y2="472.74"/>
  <line class="cls-1" x1="95.23" y1="48.35" x2="166.01" y2="119.14"/>
  <line class="cls-1" x1="95.2" y1="12.97" x2="165.96" y2="83.73"/>
  <line class="cls-1" x1="130.71" y1="13.13" x2="165.85" y2="48.26"/>
  <line class="cls-1" x1="201.73" y1="437.35" x2="237.09" y2="472.71"/>
  <line class="cls-1" x1="201.47" y1="366.74" x2="272.19" y2="437.45"/>
  <line class="cls-1" x1="24.87" y1="437.43" x2="60.23" y2="472.78"/>
  <line class="cls-1" x1="24.96" y1="331.44" x2="166.3" y2="472.78"/>
  <line class="cls-1" x1="341.18" y1="188.63" x2="166.05" y2="13.5"/>
  <line class="cls-1" x1="236.94" y1="13.15" x2="201.66" y2="48.43"/>
  <line class="cls-1" x1="272.34" y1="13.19" x2="201.78" y2="83.75"/>
  <line class="cls-1" x1="307.66" y1="13.15" x2="237.49" y2="83.32"/>
  <line class="cls-1" x1="201.59" y1="13.15" x2="24.74" y2="190"/>
  <line class="cls-1" x1="165.94" y1="83.71" x2="60.05" y2="189.6"/>
  <line class="cls-1" x1="165.71" y1="13.23" x2="24.69" y2="154.24"/>
  <line class="cls-1" x1="130.58" y1="13" x2="24.15" y2="119.43"/>
  <line class="cls-1" x1="342.98" y1="13.11" x2="236.91" y2="119.18"/>
  <line class="cls-1" x1="343.01" y1="48.5" x2="274.21" y2="117.3"/>
  <line class="cls-1" x1="343.01" y1="83.86" x2="272.3" y2="154.57"/>
  <line class="cls-1" x1="343.01" y1="119.22" x2="308.21" y2="154.02"/>
  <line class="cls-1" x1="343.01" y1="154.45" x2="308.21" y2="189.25"/>
  <line class="cls-1" x1="342.88" y1="119.08" x2="236.94" y2="13.15"/>
  <line class="cls-1" x1="343.01" y1="83.86" x2="272.34" y2="13.19"/>
  <line class="cls-1" x1="343.01" y1="48.5" x2="307.66" y2="13.15"/>
  <line class="cls-1" x1="342.93" y1="154.49" x2="201.59" y2="13.15"/>
</svg>