<?xml version="1.0" encoding="UTF-8"?>
<svg id="_1" data-name="1" xmlns="http://www.w3.org/2000/svg" viewBox="0 0 372.77 479.29">
  <defs>
    <style>
      .cls-1 {
        fill: none;
        stroke: #1d1d1b;
        stroke-linecap: round;
        stroke-miterlimit: 10;
        stroke-width: 10px;
      }
    </style>
  </defs>
  <line class="cls-1" x1="116.95" y1="43.22" x2="152.22" y2="7.94"/>
  <line class="cls-1" x1="10.37" y1="43.22" x2="45.65" y2="7.94"/>
  <line class="cls-1" x1="10.47" y1="114.01" x2="116.44" y2="8.04"/>
  <line class="cls-1" x1="116.94" y1="184.65" x2="293.66" y2="7.93"/>
  <line class="cls-1" x1="116.86" y1="149.36" x2="258.28" y2="7.93"/>
  <line class="cls-1" x1="116.87" y1="114.07" x2="222.94" y2="8"/>
  <line class="cls-1" x1="116.9" y1="78.61" x2="187.57" y2="7.93"/>
  <line class="cls-1" x1="10.47" y1="78.66" x2="81.33" y2="7.8"/>
  <line class="cls-1" x1="116.92" y1="220.08" x2="258.32" y2="78.68"/>
  <line class="cls-1" x1="117.09" y1="255.02" x2="258.2" y2="113.92"/>
  <line class="cls-1" x1="116.92" y1="290.76" x2="258.3" y2="149.38"/>
  <line class="cls-1" x1="116.84" y1="326.12" x2="258.15" y2="184.8"/>
  <line class="cls-1" x1="116.67" y1="361.34" x2="258.11" y2="219.9"/>
  <line class="cls-1" x1="116.69" y1="396.68" x2="258.11" y2="255.25"/>
  <line class="cls-1" x1="116.69" y1="432.03" x2="258.11" y2="290.61"/>
  <line class="cls-1" x1="116.86" y1="467.57" x2="258.36" y2="326.07"/>
  <line class="cls-1" x1="152.23" y1="467.58" x2="258.32" y2="361.48"/>
  <line class="cls-1" x1="187.47" y1="467.61" x2="258.26" y2="396.82"/>
  <line class="cls-1" x1="222.98" y1="467.58" x2="258.36" y2="432.2"/>
  <line class="cls-1" x1="258.32" y1="361.48" x2="116.92" y2="220.08"/>
  <line class="cls-1" x1="258.32" y1="396.84" x2="116.8" y2="255.32"/>
  <line class="cls-1" x1="258.33" y1="432.17" x2="116.92" y2="290.76"/>
  <line class="cls-1" x1="222.94" y1="467.62" x2="116.85" y2="361.52"/>
  <line class="cls-1" x1="187.41" y1="467.55" x2="116.61" y2="396.75"/>
  <line class="cls-1" x1="152.22" y1="467.57" x2="117.07" y2="432.41"/>
  <line class="cls-1" x1="258.33" y1="467.66" x2="116.81" y2="326.14"/>
  <line class="cls-1" x1="258.28" y1="325.99" x2="117.01" y2="184.72"/>
  <line class="cls-1" x1="258.08" y1="290.56" x2="116.87" y2="149.35"/>
  <line class="cls-1" x1="258.11" y1="255.25" x2="116.9" y2="114.04"/>
  <line class="cls-1" x1="258.15" y1="219.86" x2="116.91" y2="78.62"/>
  <line class="cls-1" x1="258.24" y1="184.71" x2="81.33" y2="7.8"/>
  <line class="cls-1" x1="258.34" y1="149.34" x2="116.86" y2="7.86"/>
  <line class="cls-1" x1="258.14" y1="113.86" x2="152.25" y2="7.97"/>
  <line class="cls-1" x1="258.28" y1="78.65" x2="187.57" y2="7.93"/>
  <line class="cls-1" x1="258.29" y1="43.3" x2="222.97" y2="7.97"/>
  <line class="cls-1" x1="81.23" y1="77.52" x2="11.06" y2="7.35"/>
  <line class="cls-1" x1="45.83" y1="78.66" x2="10.68" y2="43.51"/>
  <line class="cls-1" x1="81.03" y1="43.46" x2="45.88" y2="8.31"/>
  <line class="cls-1" x1="294.37" y1="43.51" x2="329.65" y2="8.23"/>
  <line class="cls-1" x1="328.71" y1="113.97" x2="363.99" y2="78.7"/>
  <line class="cls-1" x1="330.15" y1="78.29" x2="363.99" y2="44.45"/>
  <line class="cls-1" x1="294.47" y1="78.94" x2="365.33" y2="8.08"/>
  <line class="cls-1" x1="365.24" y1="77.81" x2="295.06" y2="7.64"/>
  <line class="cls-1" x1="364.64" y1="113.76" x2="258.55" y2="7.67"/>
  <line class="cls-1" x1="365.03" y1="43.74" x2="329.88" y2="8.6"/>
  <line class="cls-1" x1="45.83" y1="114.01" x2="10.47" y2="78.66"/>
</svg>