<?xml version="1.0" encoding="UTF-8"?>
<svg id="_1" data-name="1" xmlns="http://www.w3.org/2000/svg" viewBox="0 0 372.77 479.29">
  <defs>
    <style>
      .cls-1 {
        fill: none;
        stroke: #1d1d1b;
        stroke-linecap: round;
        stroke-miterlimit: 10;
        stroke-width: 10px;
      }
    </style>
  </defs>
  <line class="cls-1" x1="168.16" y1="51.44" x2="132.81" y2="16.08"/>
  <line class="cls-1" x1="346.19" y1="49.92" x2="310.84" y2="14.56"/>
  <line class="cls-1" x1="168.16" y1="192.73" x2="26.94" y2="51.51"/>
  <line class="cls-1" x1="168.43" y1="157.24" x2="27.15" y2="15.95"/>
  <line class="cls-1" x1="168.5" y1="121.98" x2="62.49" y2="15.97"/>
  <line class="cls-1" x1="168.13" y1="86.58" x2="97.87" y2="16.33"/>
  <line class="cls-1" x1="168.42" y1="228.13" x2="27.6" y2="87.31"/>
  <line class="cls-1" x1="168.32" y1="263.38" x2="26.8" y2="121.87"/>
  <line class="cls-1" x1="168.34" y1="298.76" x2="27.19" y2="157.61"/>
  <line class="cls-1" x1="168.65" y1="334.07" x2="27.34" y2="192.76"/>
  <line class="cls-1" x1="168.54" y1="369.44" x2="27.03" y2="227.93"/>
  <line class="cls-1" x1="168.25" y1="404.91" x2="27.11" y2="263.77"/>
  <line class="cls-1" x1="203.69" y1="475.54" x2="27.15" y2="298.99"/>
  <line class="cls-1" x1="168.34" y1="475.54" x2="27" y2="334.2"/>
  <line class="cls-1" x1="132.98" y1="475.54" x2="26.93" y2="369.49"/>
  <line class="cls-1" x1="27" y1="369.56" x2="168.25" y2="228.3"/>
  <line class="cls-1" x1="27" y1="404.91" x2="168.42" y2="263.49"/>
  <line class="cls-1" x1="62.25" y1="404.81" x2="168.32" y2="298.74"/>
  <line class="cls-1" x1="97.71" y1="440.27" x2="168.54" y2="369.44"/>
  <line class="cls-1" x1="97.75" y1="475.41" x2="168.25" y2="404.91"/>
  <line class="cls-1" x1="133.06" y1="475.46" x2="168.34" y2="440.18"/>
  <line class="cls-1" x1="64.41" y1="438.31" x2="168.67" y2="334.05"/>
  <line class="cls-1" x1="26.84" y1="334.04" x2="168.16" y2="192.73"/>
  <line class="cls-1" x1="26.91" y1="298.76" x2="168.43" y2="157.24"/>
  <line class="cls-1" x1="26.91" y1="263.57" x2="168.34" y2="122.15"/>
  <line class="cls-1" x1="26.91" y1="228.04" x2="168.25" y2="86.71"/>
  <line class="cls-1" x1="27.15" y1="192.57" x2="168.91" y2="50.8"/>
  <line class="cls-1" x1="26.91" y1="157.33" x2="168.25" y2="15.99"/>
  <line class="cls-1" x1="26.8" y1="121.87" x2="132.7" y2="15.97"/>
  <line class="cls-1" x1="27.05" y1="86.76" x2="97.37" y2="16.44"/>
  <line class="cls-1" x1="26.77" y1="51.34" x2="61.66" y2="16.44"/>
  <line class="cls-1" x1="203.43" y1="51.44" x2="238.78" y2="16.08"/>
  <line class="cls-1" x1="203.43" y1="192.73" x2="345.71" y2="50.45"/>
  <line class="cls-1" x1="203.16" y1="157.24" x2="345.5" y2="14.89"/>
  <line class="cls-1" x1="203.09" y1="121.98" x2="309.98" y2="15.09"/>
  <line class="cls-1" x1="203.46" y1="86.58" x2="273.72" y2="16.33"/>
  <line class="cls-1" x1="203.17" y1="228.13" x2="343.99" y2="87.31"/>
  <line class="cls-1" x1="203.27" y1="263.38" x2="344.78" y2="121.87"/>
  <line class="cls-1" x1="203.25" y1="298.76" x2="344.4" y2="157.61"/>
  <line class="cls-1" x1="202.94" y1="334.07" x2="344.24" y2="192.76"/>
  <line class="cls-1" x1="203.05" y1="369.44" x2="344.56" y2="227.93"/>
  <line class="cls-1" x1="203.34" y1="404.91" x2="344.48" y2="263.77"/>
  <line class="cls-1" x1="167.9" y1="475.54" x2="344.44" y2="298.99"/>
  <line class="cls-1" x1="203.25" y1="475.54" x2="344.59" y2="334.2"/>
  <line class="cls-1" x1="238.61" y1="475.54" x2="344.66" y2="369.49"/>
  <line class="cls-1" x1="344.59" y1="369.56" x2="203.34" y2="228.3"/>
  <line class="cls-1" x1="344.59" y1="404.91" x2="203.17" y2="263.49"/>
  <line class="cls-1" x1="309.34" y1="404.81" x2="203.27" y2="298.74"/>
  <line class="cls-1" x1="273.88" y1="440.27" x2="203.05" y2="369.44"/>
  <line class="cls-1" x1="273.84" y1="475.41" x2="203.34" y2="404.91"/>
  <line class="cls-1" x1="238.53" y1="475.46" x2="203.25" y2="440.18"/>
  <line class="cls-1" x1="309.06" y1="440.2" x2="202.92" y2="334.05"/>
  <line class="cls-1" x1="344.75" y1="334.04" x2="203.43" y2="192.73"/>
  <line class="cls-1" x1="344.68" y1="298.76" x2="203.16" y2="157.24"/>
  <line class="cls-1" x1="344.68" y1="263.57" x2="203.25" y2="122.15"/>
  <line class="cls-1" x1="344.68" y1="228.04" x2="203.34" y2="86.71"/>
  <line class="cls-1" x1="344.44" y1="192.57" x2="203.37" y2="51.49"/>
  <line class="cls-1" x1="344.68" y1="157.33" x2="203.34" y2="15.99"/>
  <line class="cls-1" x1="344.78" y1="121.87" x2="238.89" y2="15.97"/>
  <line class="cls-1" x1="344.56" y1="86.74" x2="273.58" y2="15.76"/>
</svg>