<?xml version="1.0" encoding="UTF-8"?>
<svg id="_1" data-name="1" xmlns="http://www.w3.org/2000/svg" viewBox="0 0 372.77 479.29">
  <defs>
    <style>
      .cls-1 {
        fill: none;
        stroke: #1d1d1b;
        stroke-linecap: round;
        stroke-miterlimit: 10;
        stroke-width: 10px;
      }
    </style>
  </defs>
  <line class="cls-1" x1="133.45" y1="401.53" x2="204.09" y2="472.17"/>
  <line class="cls-1" x1="98.46" y1="331.19" x2="203.91" y2="436.63"/>
  <line class="cls-1" x1="98.15" y1="295.26" x2="239.57" y2="436.68"/>
  <line class="cls-1" x1="63.29" y1="224.94" x2="239.44" y2="401.1"/>
  <line class="cls-1" x1="27.03" y1="47.29" x2="204.25" y2="224.51"/>
  <line class="cls-1" x1="27.31" y1="83.07" x2="274.98" y2="330.75"/>
  <line class="cls-1" x1="27.93" y1="118.87" x2="274.8" y2="365.74"/>
  <line class="cls-1" x1="62.66" y1="188.96" x2="239.66" y2="365.96"/>
  <line class="cls-1" x1="27.09" y1="12.32" x2="204.09" y2="189.32"/>
  <line class="cls-1" x1="62.59" y1="12.26" x2="168.87" y2="118.53"/>
  <line class="cls-1" x1="203.98" y1="118.5" x2="310.1" y2="224.63"/>
  <line class="cls-1" x1="98.44" y1="12.96" x2="168.55" y2="83.07"/>
  <line class="cls-1" x1="133.38" y1="12.18" x2="168.73" y2="47.54"/>
  <line class="cls-1" x1="241.88" y1="226.75" x2="310.25" y2="295.12"/>
  <line class="cls-1" x1="240.88" y1="260.14" x2="309.25" y2="328.51"/>
  <line class="cls-1" x1="239.89" y1="189.24" x2="310.42" y2="259.77"/>
  <line class="cls-1" x1="204.5" y1="83.4" x2="310.11" y2="189.01"/>
  <line class="cls-1" x1="204.27" y1="47.72" x2="310.34" y2="153.79"/>
  <line class="cls-1" x1="204.62" y1="12.72" x2="345.51" y2="153.61"/>
  <line class="cls-1" x1="239.62" y1="12.36" x2="345.51" y2="118.25"/>
  <line class="cls-1" x1="274.98" y1="12.36" x2="345.74" y2="83.12"/>
  <line class="cls-1" x1="310.16" y1="12.18" x2="345.69" y2="47.72"/>
  <line class="cls-1" x1="310.25" y1="224.47" x2="133.32" y2="401.41"/>
  <line class="cls-1" x1="310.11" y1="189.01" x2="133.2" y2="365.92"/>
  <line class="cls-1" x1="345.63" y1="118.49" x2="239.62" y2="224.5"/>
  <line class="cls-1" x1="204.04" y1="260.09" x2="98.69" y2="365.44"/>
  <line class="cls-1" x1="204.09" y1="224.68" x2="98.66" y2="330.11"/>
  <line class="cls-1" x1="204.09" y1="189.32" x2="97.98" y2="295.43"/>
  <line class="cls-1" x1="345.63" y1="47.78" x2="239.77" y2="153.64"/>
  <line class="cls-1" x1="345.63" y1="12.43" x2="98.2" y2="259.85"/>
  <line class="cls-1" x1="345.74" y1="83.12" x2="239.84" y2="189.02"/>
  <line class="cls-1" x1="310.16" y1="12.18" x2="203.91" y2="118.43"/>
  <line class="cls-1" x1="168.27" y1="154.07" x2="62.02" y2="260.32"/>
  <line class="cls-1" x1="168.87" y1="118.53" x2="63.18" y2="224.22"/>
  <line class="cls-1" x1="168.55" y1="83.07" x2="62.66" y2="188.96"/>
  <line class="cls-1" x1="168.55" y1="47.72" x2="62.76" y2="153.51"/>
  <line class="cls-1" x1="274.19" y1="12.01" x2="204.15" y2="82.06"/>
  <line class="cls-1" x1="167.98" y1="12.93" x2="27.79" y2="153.12"/>
  <line class="cls-1" x1="132.99" y1="12.57" x2="27.13" y2="118.43"/>
  <line class="cls-1" x1="97.84" y1="12.36" x2="27.41" y2="82.8"/>
  <line class="cls-1" x1="62.22" y1="12.1" x2="27.13" y2="47.19"/>
  <line class="cls-1" x1="239.49" y1="12.5" x2="204.4" y2="47.59"/>
  <line class="cls-1" x1="310.42" y1="259.82" x2="133.47" y2="436.78"/>
  <line class="cls-1" x1="310.37" y1="295.25" x2="169.08" y2="436.54"/>
  <line class="cls-1" x1="239.44" y1="401.1" x2="170.3" y2="470.24"/>
</svg>