<?xml version="1.0" encoding="UTF-8"?>
<svg id="_1" data-name="1" xmlns="http://www.w3.org/2000/svg" viewBox="0 0 372.77 479.29">
  <defs>
    <style>
      .cls-1 {
        fill: none;
        stroke: #1d1d1b;
        stroke-linecap: round;
        stroke-miterlimit: 10;
        stroke-width: 10px;
      }
    </style>
  </defs>
  <line class="cls-1" x1="343.58" y1="296.58" x2="168.46" y2="471.71"/>
  <line class="cls-1" x1="345.59" y1="153.52" x2="27.2" y2="471.92"/>
  <line class="cls-1" x1="344.96" y1="83.45" x2="27.85" y2="400.56"/>
  <line class="cls-1" x1="343.89" y1="49.52" x2="26.77" y2="366.63"/>
  <line class="cls-1" x1="345.21" y1="13.2" x2="27.12" y2="331.29"/>
  <line class="cls-1" x1="345.79" y1="118.37" x2="27.39" y2="436.77"/>
  <line class="cls-1" x1="239.35" y1="472.06" x2="204.07" y2="436.78"/>
  <line class="cls-1" x1="167.9" y1="472.06" x2="27.2" y2="331.36"/>
  <line class="cls-1" x1="274.74" y1="472.02" x2="204.18" y2="401.46"/>
  <line class="cls-1" x1="132.23" y1="472.02" x2="26.63" y2="366.42"/>
  <line class="cls-1" x1="168.1" y1="400.81" x2="62.85" y2="295.56"/>
  <line class="cls-1" x1="169.47" y1="366.68" x2="63.87" y2="261.08"/>
  <line class="cls-1" x1="203.75" y1="330.25" x2="98.14" y2="224.65"/>
  <line class="cls-1" x1="238.85" y1="294.71" x2="133.46" y2="189.33"/>
  <line class="cls-1" x1="274.35" y1="259.06" x2="168.74" y2="153.45"/>
  <line class="cls-1" x1="274.66" y1="224.46" x2="204.4" y2="154.19"/>
  <line class="cls-1" x1="238.81" y1="259.39" x2="169" y2="189.58"/>
  <line class="cls-1" x1="203.53" y1="294.67" x2="133.72" y2="224.86"/>
  <line class="cls-1" x1="168.25" y1="329.95" x2="98.44" y2="260.14"/>
  <line class="cls-1" x1="308.13" y1="222.12" x2="204.35" y2="118.35"/>
  <line class="cls-1" x1="310.06" y1="472.06" x2="239.89" y2="401.89"/>
  <line class="cls-1" x1="203.99" y1="472.06" x2="27.13" y2="295.2"/>
  <line class="cls-1" x1="345.38" y1="472.1" x2="239.32" y2="366.03"/>
  <line class="cls-1" x1="345.42" y1="436.71" x2="276.62" y2="367.91"/>
  <line class="cls-1" x1="345.42" y1="401.35" x2="274.71" y2="330.64"/>
  <line class="cls-1" x1="97.34" y1="471.36" x2="27.58" y2="401.6"/>
  <line class="cls-1" x1="345.42" y1="365.99" x2="310.62" y2="331.19"/>
  <line class="cls-1" x1="345.42" y1="330.76" x2="310.62" y2="295.96"/>
  <line class="cls-1" x1="62.26" y1="472.39" x2="27.46" y2="437.59"/>
  <line class="cls-1" x1="345.42" y1="47.51" x2="310.62" y2="12.71"/>
  <line class="cls-1" x1="345.28" y1="366.13" x2="239.35" y2="472.06"/>
  <line class="cls-1" x1="345.42" y1="401.35" x2="274.74" y2="472.02"/>
  <line class="cls-1" x1="167.86" y1="401.35" x2="97.19" y2="472.02"/>
  <line class="cls-1" x1="310.42" y1="12.28" x2="204.27" y2="118.42"/>
  <line class="cls-1" x1="275.09" y1="12.25" x2="204.33" y2="83.01"/>
  <line class="cls-1" x1="239.58" y1="12.41" x2="204.44" y2="47.54"/>
  <line class="cls-1" x1="168.56" y1="436.63" x2="133.2" y2="471.99"/>
  <line class="cls-1" x1="168.81" y1="366.02" x2="62.35" y2="472.48"/>
  <line class="cls-1" x1="345.42" y1="436.71" x2="310.06" y2="472.06"/>
  <line class="cls-1" x1="345.33" y1="330.72" x2="203.99" y2="472.06"/>
  <line class="cls-1" x1="29.11" y1="187.91" x2="204.23" y2="12.78"/>
  <line class="cls-1" x1="133.34" y1="12.43" x2="168.62" y2="47.71"/>
  <line class="cls-1" x1="97.95" y1="12.47" x2="168.51" y2="83.03"/>
  <line class="cls-1" x1="62.63" y1="12.43" x2="132.8" y2="82.6"/>
  <line class="cls-1" x1="168.7" y1="12.43" x2="345.55" y2="189.28"/>
  <line class="cls-1" x1="204.35" y1="82.99" x2="310.24" y2="188.88"/>
  <line class="cls-1" x1="204.58" y1="12.51" x2="345.59" y2="153.52"/>
  <line class="cls-1" x1="239.71" y1="12.28" x2="346.14" y2="118.71"/>
  <line class="cls-1" x1="275.06" y1="12.28" x2="345.59" y2="82.81"/>
  <line class="cls-1" x1="27.31" y1="12.39" x2="133.38" y2="118.46"/>
  <line class="cls-1" x1="27.28" y1="47.78" x2="96.08" y2="116.58"/>
  <line class="cls-1" x1="27.28" y1="83.14" x2="97.99" y2="153.85"/>
  <line class="cls-1" x1="27.28" y1="118.5" x2="62.08" y2="153.3"/>
  <line class="cls-1" x1="27.28" y1="153.73" x2="62.08" y2="188.53"/>
  <line class="cls-1" x1="27.41" y1="118.36" x2="133.34" y2="12.43"/>
  <line class="cls-1" x1="27.28" y1="83.14" x2="97.95" y2="12.47"/>
  <line class="cls-1" x1="27.28" y1="47.78" x2="62.63" y2="12.43"/>
  <line class="cls-1" x1="27.36" y1="153.77" x2="168.7" y2="12.43"/>
</svg>